<svg width="48" height="48" viewBox="0 0 48 48" fill="none" xmlns="http://www.w3.org/2000/svg">
<rect width="48" height="48" rx="24" fill="white"/>
<path d="M24.5312 17.25L29.7812 22.75C30.0625 23.0625 30.0625 23.5312 29.75 23.8125C29.4375 24.0938 28.9688 24.0938 28.6875 23.7812L24.75 19.625V30.25C24.75 30.6875 24.4062 31 24 31C23.5625 31 23.25 30.6875 23.25 30.25V19.625L19.2812 23.7812C19 24.0938 18.5312 24.0938 18.2188 23.8125C17.9062 23.5312 17.9062 23.0312 18.1875 22.75L23.4375 17.25C23.5938 17.0938 23.7812 17 24 17C24.1875 17 24.375 17.0938 24.5312 17.25Z" fill="#000D3D"/>
</svg>
