<svg width="43" height="42" viewBox="0 0 43 42" fill="none" xmlns="http://www.w3.org/2000/svg">
<path d="M21.7812 14.25L27.0312 19.75C27.3125 20.0625 27.3125 20.5312 27 20.8125C26.6875 21.0938 26.2188 21.0938 25.9375 20.7812L22 16.625V27.25C22 27.6875 21.6562 28 21.25 28C20.8125 28 20.5 27.6875 20.5 27.25V16.625L16.5312 20.7812C16.25 21.0938 15.7812 21.0938 15.4688 20.8125C15.1562 20.5312 15.1562 20.0312 15.4375 19.75L20.6875 14.25C20.8438 14.0938 21.0312 14 21.25 14C21.4375 14 21.625 14.0938 21.7812 14.25Z" fill="white"/>
<rect x="0.75" y="0.5" width="41" height="41" rx="20.5" stroke="white" stroke-opacity="0.4"/>
</svg>
