<svg width="43" height="42" viewBox="0 0 43 42" fill="none" xmlns="http://www.w3.org/2000/svg">
<path d="M21.1875 27.7812L15.9375 22.2812C15.6562 21.9688 15.6562 21.5 15.9688 21.2188C16.2812 20.9375 16.75 20.9375 17.0312 21.25L21 25.4062V14.75C21 14.3438 21.3125 14 21.75 14C22.1562 14 22.5 14.3438 22.5 14.75V25.4062L26.4375 21.25C26.7188 20.9375 27.2188 20.9375 27.5 21.2188C27.8125 21.5 27.8125 21.9688 27.5312 22.2812L22.2812 27.7812C22.125 27.9375 21.9375 28 21.75 28C21.5312 28 21.3438 27.9375 21.1875 27.7812Z" fill="white"/>
<rect x="1.25" y="0.5" width="41" height="41" rx="20.5" stroke="white" stroke-opacity="0.4"/>
</svg>
