<svg width="48" height="32" viewBox="0 0 48 32" fill="none" xmlns="http://www.w3.org/2000/svg">
<rect width="32" height="32" rx="16" fill="white"/>
<path d="M2.97461 16C2.97461 14.3952 4.27526 13.0941 5.88002 13.0941C7.48478 13.0941 8.78648 11.7934 8.78648 10.1887C8.78648 8.58389 10.0876 7.2822 11.6929 7.2822C13.2977 7.2822 14.5983 8.58337 14.5983 10.1887C14.5983 11.7939 13.2977 13.0941 11.6929 13.0941C10.0882 13.0941 8.78648 14.3952 8.78648 16.0005C8.78648 17.6058 10.0882 18.9059 11.6929 18.9059C13.2977 18.9059 14.5983 20.2076 14.5983 21.8124C14.5983 23.4172 13.2977 24.7178 11.6929 24.7178C10.0882 24.7178 8.78648 23.4172 8.78648 21.8124C8.78648 20.2076 7.48478 18.9059 5.88002 18.9059C4.27526 18.9059 2.97461 17.6053 2.97461 16Z" fill="black"/>
<path d="M29.0251 15.9995C29.0251 17.6042 27.7245 18.9054 26.1197 18.9054C24.5149 18.9054 23.2132 20.2061 23.2132 21.8108C23.2132 23.4156 21.9115 24.7173 20.3068 24.7173C18.702 24.7173 17.4014 23.4161 17.4014 21.8108C17.4014 20.2055 18.702 18.9054 20.3068 18.9054C21.9115 18.9054 23.2132 17.6042 23.2132 15.9995C23.2132 14.3947 21.9115 13.0941 20.3068 13.0941C18.702 13.0941 17.4014 11.7924 17.4014 10.1876C17.4014 8.58284 18.702 7.2822 20.3068 7.2822C21.9115 7.2822 23.2132 8.58284 23.2132 10.1876C23.2132 11.7924 24.5144 13.0941 26.1197 13.0941C27.7245 13.0941 29.0251 14.3947 29.0251 15.9995Z" fill="black"/>
<path d="M18.8529 16C18.8529 17.56 17.5881 18.8249 16.028 18.8249C14.468 18.8249 13.2031 17.5606 13.2031 16C13.2031 14.44 14.4675 13.1751 16.028 13.1751C17.5881 13.1751 18.8529 14.44 18.8529 16Z" fill="black"/>
<rect x="16.5" y="0.5" width="31" height="31" rx="15.5" fill="#1A2550"/>
<rect x="16.5" y="0.5" width="31" height="31" rx="15.5" stroke="#000D3D"/>
<path d="M33.1953 15.3516C35.1406 15.1406 36.6641 13.5938 36.8516 11.625H36.6875C34.8828 11.625 33.3594 12.7969 32.7734 14.3906C32.5859 13.9922 32.3281 13.6172 32.0469 13.2891C32.9375 11.625 34.6719 10.5 36.6875 10.5H37.25C37.6484 10.5 38 10.8516 38 11.25C38 13.9219 36.0078 16.125 33.4297 16.4531C33.3828 16.0781 33.3125 15.7266 33.1953 15.3516ZM27.125 13.125V13.5C27.125 15.7969 28.9531 17.625 31.25 17.625H31.4375V17.25C31.4375 14.9766 29.5859 13.125 27.3125 13.125H27.125ZM32.5625 17.25V17.625V18.75V21.9375C32.5625 22.2656 32.3047 22.5 32 22.5C31.6719 22.5 31.4375 22.2656 31.4375 21.9375V18.75H31.25C28.3438 18.75 26 16.4062 26 13.5V12.75C26 12.3516 26.3281 12 26.75 12H27.3125C30.1953 12 32.5625 14.3672 32.5625 17.25Z" fill="white"/>
</svg>
