<svg width="48" height="32" viewBox="0 0 48 32" fill="none" xmlns="http://www.w3.org/2000/svg">
<rect width="32" height="32" rx="16" fill="white"/>
<path d="M2.97461 16C2.97461 14.3953 4.27526 13.0941 5.88002 13.0941C7.48478 13.0941 8.78648 11.7934 8.78648 10.1887C8.78648 8.58393 10.0876 7.28223 11.6929 7.28223C13.2977 7.28223 14.5983 8.5834 14.5983 10.1887C14.5983 11.794 13.2977 13.0941 11.6929 13.0941C10.0882 13.0941 8.78648 14.3953 8.78648 16.0006C8.78648 17.6058 10.0882 18.906 11.6929 18.906C13.2977 18.906 14.5983 20.2077 14.5983 21.8124C14.5983 23.4172 13.2977 24.7178 11.6929 24.7178C10.0882 24.7178 8.78648 23.4172 8.78648 21.8124C8.78648 20.2077 7.48478 18.906 5.88002 18.906C4.27526 18.906 2.97461 17.6053 2.97461 16Z" fill="black"/>
<path d="M29.0251 15.9995C29.0251 17.6043 27.7245 18.9054 26.1197 18.9054C24.5149 18.9054 23.2132 20.2061 23.2132 21.8108C23.2132 23.4156 21.9115 24.7173 20.3068 24.7173C18.702 24.7173 17.4014 23.4161 17.4014 21.8108C17.4014 20.2056 18.702 18.9054 20.3068 18.9054C21.9115 18.9054 23.2132 17.6043 23.2132 15.9995C23.2132 14.3947 21.9115 13.0941 20.3068 13.0941C18.702 13.0941 17.4014 11.7924 17.4014 10.1876C17.4014 8.58287 18.702 7.28223 20.3068 7.28223C21.9115 7.28223 23.2132 8.58287 23.2132 10.1876C23.2132 11.7924 24.5144 13.0941 26.1197 13.0941C27.7245 13.0941 29.0251 14.3947 29.0251 15.9995Z" fill="black"/>
<path d="M18.8529 16C18.8529 17.5601 17.5881 18.8249 16.028 18.8249C14.468 18.8249 13.2031 17.5606 13.2031 16C13.2031 14.44 14.4675 13.1751 16.028 13.1751C17.5881 13.1751 18.8529 14.44 18.8529 16Z" fill="black"/>
<rect x="16.5" y="0.5" width="31" height="31" rx="15.5" fill="#1A2550"/>
<rect x="16.5" y="0.5" width="31" height="31" rx="15.5" stroke="#000D3D"/>
<path d="M32.3984 11.4375L36.3359 15.5625C36.5469 15.7969 36.5469 16.1484 36.3125 16.3594C36.0781 16.5703 35.7266 16.5703 35.5156 16.3359L32.5625 13.2188V21.1875C32.5625 21.5156 32.3047 21.75 32 21.75C31.6719 21.75 31.4375 21.5156 31.4375 21.1875V13.2188L28.4609 16.3359C28.25 16.5703 27.8984 16.5703 27.6641 16.3594C27.4297 16.1484 27.4297 15.7734 27.6406 15.5625L31.5781 11.4375C31.6953 11.3203 31.8359 11.25 32 11.25C32.1406 11.25 32.2812 11.3203 32.3984 11.4375Z" fill="white"/>
</svg>
