<svg width="40" height="32" viewBox="0 0 40 32" fill="none" xmlns="http://www.w3.org/2000/svg">
<g filter="url(#filter0_b_609_852)">
<rect x="0.5" y="0.5" width="39" height="31" rx="15.5" stroke="white" stroke-opacity="0.4"/>
<path d="M13.5 18.5V21C13.5 21.2812 13.7188 21.5 14 21.5H26C26.25 21.5 26.5 21.2812 26.5 21V18.5H23.9375L23.2812 19.8125C23.0938 20.25 22.6562 20.5 22.1875 20.5H17.7812C17.3125 20.5 16.875 20.25 16.6875 19.8125L16.0312 18.5H13.5ZM26.1875 17L24.6562 10.9062C24.5938 10.6562 24.4062 10.5 24.1875 10.5H15.8125C15.5625 10.5 15.375 10.6562 15.3125 10.9062L13.7812 17H16.1875C16.6562 17 17.0938 17.2812 17.2812 17.7188L17.9375 19H22.0312L22.6875 17.7188C22.875 17.2812 23.3125 17 23.7812 17H26.1875ZM12 18.25C12 18.0938 12 17.9375 12.0312 17.7812L13.8438 10.5312C14.0938 9.625 14.875 9 15.8125 9H24.1875C25.0938 9 25.9062 9.625 26.125 10.5312L27.9375 17.7812C27.9688 17.9375 28 18.0938 28 18.25V21C28 22.125 27.0938 23 26 23H14C12.875 23 12 22.125 12 21V18.25Z" fill="white"/>
</g>
<defs>
<filter id="filter0_b_609_852" x="-20" y="-20" width="80" height="72" filterUnits="userSpaceOnUse" color-interpolation-filters="sRGB">
<feFlood flood-opacity="0" result="BackgroundImageFix"/>
<feGaussianBlur in="BackgroundImageFix" stdDeviation="10"/>
<feComposite in2="SourceAlpha" operator="in" result="effect1_backgroundBlur_609_852"/>
<feBlend mode="normal" in="SourceGraphic" in2="effect1_backgroundBlur_609_852" result="shape"/>
</filter>
</defs>
</svg>
