<svg width="32" height="32" viewBox="0 0 32 32" fill="none" xmlns="http://www.w3.org/2000/svg">
<rect width="32" height="32" rx="16" fill="white" fill-opacity="0.2"/>
<path d="M11.1016 10.7734L13.7266 13.3984C14.082 13.7266 14.082 14.3008 13.7266 14.6289C13.3984 14.9844 12.8242 14.9844 12.4961 14.6289L11.375 13.5078V17.5C11.375 17.9922 11.7578 18.375 12.25 18.375H15.3125C15.7773 18.375 16.1875 18.7852 16.1875 19.25C16.1875 19.7422 15.7773 20.125 15.3125 20.125H12.25C10.8008 20.125 9.625 18.9492 9.625 17.5V13.5078L8.47656 14.6289C8.14844 14.9844 7.57422 14.9844 7.24609 14.6289C6.89062 14.3008 6.89062 13.7266 7.24609 13.3984L9.87109 10.7734C10.1992 10.418 10.7734 10.418 11.1016 10.7734ZM16.1875 11.375H19.25C20.6992 11.375 21.875 12.5508 21.875 14V18.0195L22.9961 16.8984C23.3242 16.543 23.8984 16.543 24.2266 16.8984C24.582 17.2266 24.582 17.8008 24.2266 18.1289L21.6016 20.7539C21.2734 21.1094 20.6992 21.1094 20.3711 20.7539L17.7461 18.1289C17.3906 17.8008 17.3906 17.2266 17.7461 16.8984C18.0742 16.543 18.6484 16.543 18.9766 16.8984L20.125 18.0195V14C20.125 13.5352 19.7148 13.125 19.25 13.125H16.1875C15.6953 13.125 15.3125 12.7422 15.3125 12.25C15.3125 11.7852 15.6953 11.375 16.1875 11.375Z" fill="white"/>
</svg>
