<svg width="12" height="12" viewBox="0 0 12 12" fill="none" xmlns="http://www.w3.org/2000/svg">
<path d="M7.125 0.5625C7.125 0.257812 7.35938 0 7.6875 0H11.4141C11.7422 0 11.9766 0.257812 11.9766 0.5625V4.3125C11.9766 4.64062 11.7422 4.875 11.4141 4.875C11.1094 4.875 10.8516 4.64062 10.8516 4.3125V1.92188L5.625 7.14844C5.41406 7.38281 5.0625 7.38281 4.85156 7.14844C4.61719 6.9375 4.61719 6.58594 4.85156 6.35156L10.0781 1.125H7.6875C7.35938 1.125 7.125 0.890625 7.125 0.5625ZM1.6875 0.75H4.6875C4.99219 0.75 5.25 1.00781 5.25 1.3125C5.25 1.64062 4.99219 1.875 4.6875 1.875H1.6875C1.35938 1.875 1.125 2.13281 1.125 2.4375V10.3125C1.125 10.6406 1.35938 10.875 1.6875 10.875H9.5625C9.86719 10.875 10.125 10.6406 10.125 10.3125V7.3125C10.125 7.00781 10.3594 6.75 10.6875 6.75C10.9922 6.75 11.25 7.00781 11.25 7.3125V10.3125C11.25 11.25 10.4766 12 9.5625 12H1.6875C0.75 12 0 11.25 0 10.3125V2.4375C0 1.52344 0.75 0.75 1.6875 0.75Z" fill="#BFAFFD"/>
</svg>
