<svg width="64" height="64" viewBox="0 0 64 64" fill="none" xmlns="http://www.w3.org/2000/svg">
<path d="M11.0148 16.6538C12.7137 18.429 15.4016 18.6339 17.3371 17.2597C17.5146 17.072 17.6837 16.8927 17.8696 16.7135C18.0556 16.5343 18.2415 16.3636 18.4275 16.1929C19.8559 14.2895 19.746 11.5669 18.0471 9.79157C16.1707 7.82851 13.0772 7.7773 11.1332 9.67208C9.18913 11.5669 9.13841 14.6907 11.0148 16.6538Z" fill="#30239C"/>
<path d="M18.434 16.1926C18.248 16.3634 18.0537 16.5341 17.8762 16.7133C17.6987 16.8926 17.5212 17.0804 17.3438 17.2597C17.5466 17.1145 17.7494 16.9524 17.9353 16.7731C18.1213 16.5938 18.2818 16.3975 18.434 16.1926Z" fill="#31249A"/>
<path d="M53.7814 47.1581C52.0824 45.3829 49.3946 45.178 47.459 46.5522C47.2815 46.7399 47.1125 46.9192 46.9265 47.0984C46.7406 47.2776 46.5546 47.4483 46.3687 47.619C44.9403 49.5224 45.0501 52.245 46.749 54.0203C48.6255 55.9834 51.719 56.0346 53.663 54.1398C55.6071 52.245 55.6578 49.1212 53.7814 47.1581Z" fill="#30239C"/>
<path d="M46.3613 47.619C46.5473 47.4483 46.7416 47.2776 46.9191 47.0983C47.0966 46.9191 47.2741 46.7313 47.4516 46.552C47.2487 46.6971 47.0459 46.8593 46.86 47.0386C46.674 47.2178 46.5135 47.4142 46.3613 47.619Z" fill="#31249A"/>
<path d="M32.7762 10.4453L32.7428 10.4447L32.71 10.4505C32.2646 10.5294 31.8007 10.5378 31.3422 10.482C30.4553 10.3681 29.5988 9.98615 28.8919 9.34526L28.6664 9.10935C26.9202 7.28254 26.968 4.37516 28.7761 2.61281L28.7761 2.61281L28.7767 2.61225C29.5503 1.85472 30.5255 1.43512 31.5176 1.34507H31.5186H31.5201H31.5216H31.523H31.5245H31.526H31.5275H31.529H31.5305H31.5319H31.5334H31.5349H31.5364H31.5379H31.5393H31.5408H31.5423H31.5438H31.5453H31.5467H31.5482H31.5497H31.5512H31.5527H31.5541H31.5556H31.5571H31.5586H31.5601H31.5615H31.563H31.5645H31.566H31.5675H31.5689H31.5704H31.5719H31.5734H31.5748H31.5763H31.5778H31.5793H31.5807H31.5822H31.5837H31.5852H31.5867H31.5881H31.5896H31.5911H31.5926H31.594H31.5955H31.597H31.5985H31.5999H31.6014H31.6029H31.6044H31.6058H31.6073H31.6088H31.6103H31.6117H31.6132H31.6147H31.6161H31.6176H31.6191H31.6206H31.622H31.6235H31.625H31.6265H31.6279H31.6294H31.6309H31.6323H31.6338H31.6353H31.6368H31.6382H31.6397H31.6412H31.6426H31.6441H31.6456H31.6471H31.6485H31.65H31.6515H31.6529H31.6544H31.6559H31.6573H31.6588H31.6603H31.6617H31.6632H31.6647H31.6662H31.6676H31.6691H31.6706H31.672H31.6735H31.675H31.6764H31.6779H31.6794H31.6808H31.6823H31.6838H31.6852H31.6867H31.6882H31.6896H31.6911H31.6926H31.694H31.6955H31.697H31.6984H31.6999H31.7014H31.7028H31.7043H31.7058H31.7072H31.7087H31.7102H31.7116H31.7131H31.7146H31.716H31.7175H31.719H31.7204H31.7219H31.7234H31.7248H31.7263H31.7278H31.7292H31.7307H31.7322H31.7336H31.7351H31.7366H31.738H31.7395H31.7409H31.7424H31.7439H31.7453H31.7468H31.7483H31.7497H31.7512H31.7527H31.7541H31.7556H31.7571H31.7585H31.76H31.7614H31.7629H31.7644H31.7658H31.7673H31.7688H31.7702H31.7717H31.7731H31.7746H31.7761H31.7775H31.779H31.7805H31.7819H31.7834H31.7848H31.7863H31.7878H31.7892H31.7907H31.7922H31.7936H31.7951H31.7965H31.798H31.7995H31.8009H31.8024H31.8039H31.8053H31.8068H31.8082H31.8097H31.8112H31.8126H31.8141H31.8156H31.817H31.8185H31.8199H31.8214H31.8229H31.8243H31.8258H31.8272H31.8287H31.8302H31.8316H31.8331H31.8346H31.836H31.8375H31.8389H31.8404H31.8419H31.8433H31.8448H31.8462H31.8477H31.8492H31.8506H31.8521H31.8535H31.855H31.8565H31.8579H31.8594H31.8609H31.8623H31.8638H31.8652H31.8667H31.8682H31.8696H31.8711H31.8725H31.874H31.8755H31.8769H31.8784H31.8798H31.8813H31.8828H31.8842H31.8857H31.8872H31.8886H31.8901H31.8915H31.893H31.8945H31.8959H31.8974H31.8988H31.9003H31.9018H31.9032H31.9047H31.9061H31.9076H31.9091H31.9105H31.912H31.9135H31.9149H31.9164H31.9178H31.9193H31.9208H31.9222H31.9237H31.9251H31.9266H31.9281H31.9295H31.931H31.9324H31.9339H31.9354H31.9368H31.9383H31.9398H31.9412H31.9427H31.9441H31.9456H31.9471H31.9485H31.95H31.9515H31.9529H31.9544H31.9558H31.9573H31.9588H31.9602H31.9617H31.9631H31.9646H31.9661H31.9675H31.969H31.9705H31.9719H31.9734H31.9748H31.9763H31.9778H31.9792H31.9807H31.9822H31.9836H31.9851H31.9865H31.988H31.9895H31.9909H31.9924H31.9939H31.9953H31.9968H31.9983H31.9997H32.0012H32.0026H32.0041H32.0056H32.007H32.0085H32.01H32.0114H32.0129H32.0144H32.0158H32.0173H32.0188H32.0202H32.0217H32.0231H32.0246H32.0261H32.0275H32.029H32.0305H32.0319H32.0334H32.0349H32.0363H32.0378H32.0393H32.0407H32.0422H32.0437H32.0451H32.0466H32.0481H32.0495H32.051H32.0525H32.0539H32.0554H32.0569H32.0583H32.0598H32.0613H32.0627H32.0642H32.0657H32.0671H32.0686H32.0701H32.0715H32.073H32.0745H32.0759H32.0774H32.0789H32.0803H32.0818H32.0833H32.0847H32.0862H32.0877H32.0891H32.0906H32.0921H32.0936H32.095H32.0965H32.098H32.0994H32.1009H32.1024H32.1038H32.1053H32.1068H32.1082H32.1097H32.1112H32.1127H32.1141H32.1156H32.1171H32.1185H32.12H32.1215H32.123H32.1244H32.1259H32.1274H32.1288H32.1303H32.1318H32.1333H32.1347H32.1362H32.1377H32.1392H32.1406H32.1421H32.1436H32.145H32.1465H32.148H32.1495H32.1509H32.1524H32.1539H32.1554H32.1568H32.1583H32.1598H32.1613H32.1627H32.1642H32.1657H32.1672H32.1686H32.1701H32.1716H32.1731H32.1745H32.176H32.1775H32.179H32.1805H32.1819H32.1834H32.1849H32.1864H32.1878H32.1893H32.1908H32.1923H32.1938H32.1952H32.1967H32.1982H32.1997H32.2011H32.2026H32.2041H32.2056H32.2071H32.2085H32.21H32.2115H32.213H32.2145H32.2159H32.2174H32.2189H32.2204H32.2219H32.2234H32.2248H32.2263H32.2278H32.2293H32.2308H32.2322H32.2337H32.2352H32.2367H32.2382H32.2397H32.2411H32.2426H32.2441H32.2456H32.2471H32.2486H32.2501H32.2515H32.253L32.2545 1.34507L32.256 1.34507C39.9109 1.31131 47.5651 4.18865 53.4484 9.94398L53.4709 9.96597L53.497 9.98353C53.7574 10.1588 54.0085 10.3651 54.235 10.6017C54.4614 10.8382 54.6579 11.0998 54.8239 11.3711L54.8402 11.3977L54.861 11.421C60.3846 17.5978 62.9676 25.4705 62.6259 33.2439L62.6245 33.2648C62.617 33.3781 62.6091 33.497 62.6085 33.6239C62.5192 34.7024 62.0625 35.7614 61.2329 36.5756C59.4259 38.3363 56.5528 38.2882 54.8094 36.4642L54.8089 36.4637C54.0711 35.6949 53.6619 34.7354 53.5592 33.7487C53.512 33.262 53.5359 32.7686 53.6381 32.2842L53.645 32.2514L53.6455 32.2179C53.7228 26.7461 51.7474 21.2463 47.6841 16.9957L47.4411 17.228L47.6841 16.9957C43.612 12.7364 38.2155 10.5407 32.7762 10.4453Z" fill="url(#paint0_linear_3335_3442)" stroke="url(#paint1_linear_3335_3442)" stroke-width="0.689548"/>
<path d="M35.5919 54.6345C34.7889 53.798 33.7662 53.303 32.7012 53.1664C32.211 53.1067 31.7123 53.1152 31.2305 53.2006C25.8802 53.1067 20.5722 50.9473 16.5658 46.7566C12.5594 42.5659 10.6238 37.1632 10.6999 31.7776C10.8098 31.257 10.8351 30.7278 10.7844 30.2071C10.6745 29.1488 10.235 28.1161 9.44048 27.2882C7.56407 25.3251 4.47053 25.2739 2.5265 27.1687C1.63056 28.0478 1.14032 29.1915 1.04735 30.3522C1.04735 30.4803 1.0389 30.5998 1.03044 30.7278C0.683899 38.5886 3.29566 46.5518 8.88263 52.7994C9.06013 53.0896 9.27143 53.3713 9.51655 53.6273C9.76167 53.8834 10.0321 54.1053 10.3111 54.2931C16.2615 60.1225 24.0038 63.033 31.7461 62.9988C31.9997 62.9988 32.2448 62.9988 32.4984 62.9988C33.5718 62.9049 34.6283 62.4526 35.4651 61.6332C37.4091 59.7384 37.4599 56.6146 35.5834 54.6515L35.5919 54.6345Z" fill="#30239C"/>
<path d="M46.155 21.0185L46.1526 21.0185C41.695 20.9435 37.5864 22.876 34.7874 26.3278L34.7869 26.3284C34.2511 26.986 33.7883 27.6782 33.3739 28.4064L33.0712 28.9382L32.7731 28.4038C32.369 27.6792 31.8986 26.9874 31.3616 26.3284L31.3611 26.3278C28.5629 22.8771 24.4041 20.9521 19.9961 21.0185C19.286 21.0328 18.6803 21.5339 18.5357 22.2291L18.5352 22.2315C17.5935 26.6026 18.6591 31.0875 21.4578 34.5306L21.4579 34.5307C23.9101 37.5489 27.3841 39.3983 31.1803 39.7649L31.4919 39.795V40.1081V44.5463C31.4919 45.4004 32.1775 46.0878 33.0151 46.0878C33.8527 46.0878 34.5383 45.4004 34.5383 44.5463V40.1081V39.7927L34.8525 39.7647C38.6904 39.423 42.2139 37.5734 44.6907 34.5306C47.4895 31.0789 48.5548 26.5942 47.6134 22.2323L46.155 21.0185ZM46.155 21.0185C46.8499 21.0254 47.46 21.5296 47.6133 22.2316L46.155 21.0185ZM23.8132 32.567L23.8137 32.5676C25.6779 34.8546 28.2851 36.2995 31.1548 36.6606L31.5426 36.7094V36.3185V36.3184V36.3182V36.3181V36.3179V36.3178V36.3176V36.3175V36.3173V36.3172V36.317V36.3169V36.3167V36.3166V36.3164V36.3163V36.3161V36.316V36.3158V36.3157V36.3155V36.3154V36.3152V36.3151V36.3149V36.3148V36.3146V36.3145V36.3143V36.3142V36.314V36.3139V36.3137V36.3136V36.3134V36.3133V36.3131V36.313V36.3128V36.3127V36.3125V36.3124V36.3122V36.3121V36.3119V36.3118V36.3116V36.3115V36.3113V36.3112V36.311V36.3109V36.3107V36.3106V36.3104V36.3103V36.3101V36.31V36.3098V36.3097V36.3095V36.3094V36.3092V36.3091V36.3089V36.3088V36.3086V36.3085V36.3083V36.3082V36.308V36.3079V36.3077V36.3076V36.3074V36.3073V36.3071V36.307V36.3068V36.3067V36.3065V36.3064V36.3062V36.3061V36.3059V36.3058V36.3056V36.3055V36.3053V36.3052V36.305V36.3049V36.3047V36.3046V36.3044V36.3043V36.3041V36.304V36.3038V36.3037V36.3035V36.3034V36.3032V36.3031V36.3029V36.3028V36.3026V36.3025V36.3023V36.3022V36.302V36.3019V36.3017V36.3016V36.3014V36.3013V36.3011V36.301V36.3008V36.3007V36.3005V36.3004V36.3002V36.3001V36.2999V36.2998V36.2996V36.2995V36.2993V36.2992V36.299V36.2989V36.2987V36.2986V36.2984V36.2983V36.2981V36.298V36.2978V36.2977V36.2975V36.2974V36.2972V36.2971V36.2969V36.2968V36.2966V36.2965V36.2963V36.2962V36.296V36.2959V36.2957V36.2956V36.2954V36.2953V36.2951V36.295V36.2948V36.2947V36.2945V36.2944V36.2942V36.2941V36.2939V36.2938V36.2936V36.2935V36.2933V36.2932V36.293V36.2929V36.2927V36.2926V36.2924V36.2923V36.2921V36.292V36.2918V36.2917V36.2915V36.2914V36.2912V36.2911V36.2909V36.2908V36.2906V36.2905V36.2903V36.2902V36.29V36.2899V36.2897V36.2896V36.2894V36.2893V36.2891V36.289V36.2888V36.2887V36.2885V36.2884V36.2882V36.2881V36.2879V36.2878V36.2876V36.2875V36.2873V36.2872V36.287V36.2869V36.2867V36.2866V36.2864V36.2863V36.2861V36.286V36.2858V36.2857V36.2855V36.2854V36.2852V36.2851V36.2849V36.2848V36.2846V36.2845V36.2843V36.2842V36.284V36.2839V36.2837V36.2836V36.2834V36.2833V36.2831V36.283V36.2828V36.2827V36.2825V36.2824V36.2822V36.2821V36.2819V36.2818V36.2816V36.2815V36.2813V36.2812V36.281V36.2809V36.2807V36.2806V36.2804V36.2803V36.2801V36.28V36.2798V36.2797V36.2795V36.2794V36.2792V36.2791V36.2789V36.2788V36.2786V36.2785V36.2783V36.2782V36.278V36.2779V36.2777V36.2776V36.2774V36.2773V36.2771V36.277V36.2768V36.2767V36.2765V36.2764V36.2762V36.2761V36.2759V36.2758V36.2756V36.2755V36.2753V36.2752V36.275V36.2749V36.2747V36.2746V36.2744V36.2743V36.2741V36.274V36.2738V36.2737V36.2735V36.2734V36.2732V36.2731V36.2729V36.2728V36.2726V36.2725V36.2723V36.2722V36.272V36.2719V36.2717V36.2716V36.2714V36.2713V36.2711V36.271V36.2708V36.2707V36.2705V36.2704V36.2702V36.2701V36.2699V36.2698V36.2696V36.2695V36.2693V36.2692V36.269V36.2689V36.2687V36.2686V36.2684V36.2683V36.2681V36.268V36.2678V36.2677V36.2675V36.2674V36.2672V36.2671V36.2669V36.2668V36.2666V36.2665V36.2663V36.2662V36.266V36.2659V36.2657V36.2656V36.2654V36.2653V36.2651V36.265V36.2648V36.2647V36.2645V36.2644V36.2642V36.2641V36.2639V36.2638V36.2636V36.2635V36.2633V36.2632V36.263V36.2629V36.2627V36.2626V36.2624V36.2623V36.2621V36.262V36.2618V36.2617V36.2615V36.2614V36.2612V36.2611V36.2609V36.2608V36.2606V36.2605V36.2603V36.2602V36.26V36.2599V36.2597V36.2596V36.2594V36.2593V36.2591V36.259V36.2588V36.2587V36.2585V36.2584V36.2582V36.2581V36.2579V36.2578V36.2576V36.2575V36.2573V36.2572V36.257V36.2569V36.2567V36.2566V36.2564V36.2563V36.2561V36.256V36.2558V36.2557V36.2555V36.2554V36.2552V36.2551V36.2549V36.2548V36.2546V36.2545V36.2543V36.2542V36.254V36.2539V36.2537V36.2536V36.2534V36.2533V36.2531V36.253V36.2528V36.2527V36.2525V36.2524V36.2522V36.2521V36.2519V36.2518V36.2516V36.2515V36.2513V36.2512V36.251V36.2509V36.2507V36.2506V36.2504V36.2503V36.2501V36.25V36.2498V36.2497V36.2495V36.2494V36.2492V36.2491V36.2489V36.2488V36.2486V36.2485V36.2483V36.2482V36.248V36.2479V36.2477V36.2476V36.2474V36.2473V36.2471V36.247V36.2468V36.2467V36.2465V36.2464V36.2462V36.2461V36.2459V36.2458V36.2456V36.2455V36.2453V36.2452V36.245V36.2449V36.2447V36.2446V36.2444V36.2443V36.2441V36.244V36.2438V36.2437V36.2435V36.2434V36.2432V36.2431V36.2429V36.2428V36.2426V36.2425V36.2423V36.2422V36.242V36.2419V36.2417V36.2323L31.5421 36.2228C31.5176 35.7778 31.5256 35.3293 31.5424 34.8805L31.543 34.8639L31.542 34.8474C31.4026 32.4727 30.5402 30.1758 29.006 28.2833L29.0055 28.2826C27.1413 25.9955 24.5341 24.5507 21.6644 24.1896L21.3036 24.1442L21.2775 24.5069C21.0684 27.4103 21.9573 30.2793 23.8132 32.567ZM34.6059 36.3185V36.7094L34.9937 36.6606C37.8629 36.2996 40.479 34.855 42.3352 32.567C44.1911 30.2793 45.0801 27.4103 44.871 24.5069L44.8449 24.1442L44.4841 24.1896C41.6151 24.5506 38.9992 25.9949 37.143 28.2826C35.6001 30.1752 34.7371 32.4643 34.6064 34.8487L34.6055 34.8645L34.6061 34.8802C34.6229 35.3379 34.6309 35.7778 34.6064 36.2228L34.6059 36.2323V36.2417V36.2419V36.242V36.2422V36.2423V36.2425V36.2426V36.2428V36.2429V36.2431V36.2432V36.2434V36.2435V36.2437V36.2438V36.244V36.2441V36.2443V36.2444V36.2446V36.2447V36.2449V36.245V36.2452V36.2453V36.2455V36.2456V36.2458V36.2459V36.2461V36.2462V36.2464V36.2465V36.2467V36.2468V36.247V36.2471V36.2473V36.2474V36.2476V36.2477V36.2479V36.248V36.2482V36.2483V36.2485V36.2486V36.2488V36.2489V36.2491V36.2492V36.2494V36.2495V36.2497V36.2498V36.25V36.2501V36.2503V36.2504V36.2506V36.2507V36.2509V36.251V36.2512V36.2513V36.2515V36.2516V36.2518V36.2519V36.2521V36.2522V36.2524V36.2525V36.2527V36.2528V36.253V36.2531V36.2533V36.2534V36.2536V36.2537V36.2539V36.254V36.2542V36.2543V36.2545V36.2546V36.2548V36.2549V36.2551V36.2552V36.2554V36.2555V36.2557V36.2558V36.256V36.2561V36.2563V36.2564V36.2566V36.2567V36.2569V36.257V36.2572V36.2573V36.2575V36.2576V36.2578V36.2579V36.2581V36.2582V36.2584V36.2585V36.2587V36.2588V36.259V36.2591V36.2593V36.2594V36.2596V36.2597V36.2599V36.26V36.2602V36.2603V36.2605V36.2606V36.2608V36.2609V36.2611V36.2612V36.2614V36.2615V36.2617V36.2618V36.262V36.2621V36.2623V36.2624V36.2626V36.2627V36.2629V36.263V36.2632V36.2633V36.2635V36.2636V36.2638V36.2639V36.2641V36.2642V36.2644V36.2645V36.2647V36.2648V36.265V36.2651V36.2653V36.2654V36.2656V36.2657V36.2659V36.266V36.2662V36.2663V36.2665V36.2666V36.2668V36.2669V36.2671V36.2672V36.2674V36.2675V36.2677V36.2678V36.268V36.2681V36.2683V36.2684V36.2686V36.2687V36.2689V36.269V36.2692V36.2693V36.2695V36.2696V36.2698V36.2699V36.2701V36.2702V36.2704V36.2705V36.2707V36.2708V36.271V36.2711V36.2713V36.2714V36.2716V36.2717V36.2719V36.272V36.2722V36.2723V36.2725V36.2726V36.2728V36.2729V36.2731V36.2732V36.2734V36.2735V36.2737V36.2738V36.274V36.2741V36.2743V36.2744V36.2746V36.2747V36.2749V36.275V36.2752V36.2753V36.2755V36.2756V36.2758V36.2759V36.2761V36.2762V36.2764V36.2765V36.2767V36.2768V36.277V36.2771V36.2773V36.2774V36.2776V36.2777V36.2779V36.278V36.2782V36.2783V36.2785V36.2786V36.2788V36.2789V36.2791V36.2792V36.2794V36.2795V36.2797V36.2798V36.28V36.2801V36.2803V36.2804V36.2806V36.2807V36.2809V36.281V36.2812V36.2813V36.2815V36.2816V36.2818V36.2819V36.2821V36.2822V36.2824V36.2825V36.2827V36.2828V36.283V36.2831V36.2833V36.2834V36.2836V36.2837V36.2839V36.284V36.2842V36.2843V36.2845V36.2846V36.2848V36.2849V36.2851V36.2852V36.2854V36.2855V36.2857V36.2858V36.286V36.2861V36.2863V36.2864V36.2866V36.2867V36.2869V36.287V36.2872V36.2873V36.2875V36.2876V36.2878V36.2879V36.2881V36.2882V36.2884V36.2885V36.2887V36.2888V36.289V36.2891V36.2893V36.2894V36.2896V36.2897V36.2899V36.29V36.2902V36.2903V36.2905V36.2906V36.2908V36.2909V36.2911V36.2912V36.2914V36.2915V36.2917V36.2918V36.292V36.2921V36.2923V36.2924V36.2926V36.2927V36.2929V36.293V36.2932V36.2933V36.2935V36.2936V36.2938V36.2939V36.2941V36.2942V36.2944V36.2945V36.2947V36.2948V36.295V36.2951V36.2953V36.2954V36.2956V36.2957V36.2959V36.296V36.2962V36.2963V36.2965V36.2966V36.2968V36.2969V36.2971V36.2972V36.2974V36.2975V36.2977V36.2978V36.298V36.2981V36.2983V36.2984V36.2986V36.2987V36.2989V36.299V36.2992V36.2993V36.2995V36.2996V36.2998V36.2999V36.3001V36.3002V36.3004V36.3005V36.3007V36.3008V36.301V36.3011V36.3013V36.3014V36.3016V36.3017V36.3019V36.302V36.3022V36.3023V36.3025V36.3026V36.3028V36.3029V36.3031V36.3032V36.3034V36.3035V36.3037V36.3038V36.304V36.3041V36.3043V36.3044V36.3046V36.3047V36.3049V36.305V36.3052V36.3053V36.3055V36.3056V36.3058V36.3059V36.3061V36.3062V36.3064V36.3065V36.3067V36.3068V36.307V36.3071V36.3073V36.3074V36.3076V36.3077V36.3079V36.308V36.3082V36.3083V36.3085V36.3086V36.3088V36.3089V36.3091V36.3092V36.3094V36.3095V36.3097V36.3098V36.31V36.3101V36.3103V36.3104V36.3106V36.3107V36.3109V36.311V36.3112V36.3113V36.3115V36.3116V36.3118V36.3119V36.3121V36.3122V36.3124V36.3125V36.3127V36.3128V36.313V36.3131V36.3133V36.3134V36.3136V36.3137V36.3139V36.314V36.3142V36.3143V36.3145V36.3146V36.3148V36.3149V36.3151V36.3152V36.3154V36.3155V36.3157V36.3158V36.316V36.3161V36.3163V36.3164V36.3166V36.3167V36.3169V36.317V36.3172V36.3173V36.3175V36.3176V36.3178V36.3179V36.3181V36.3182V36.3184V36.3185Z" fill="url(#paint2_linear_3335_3442)" stroke="url(#paint3_linear_3335_3442)" stroke-width="0.689548"/>
<defs>
<linearGradient id="paint0_linear_3335_3442" x1="-1.64489" y1="-16.9042" x2="127.644" y2="5.45133" gradientUnits="userSpaceOnUse">
<stop stop-color="#8566FF" stop-opacity="0.7"/>
<stop offset="0.394001" stop-color="#8566FF" stop-opacity="0.7"/>
<stop offset="0.577136" stop-color="#5D34FF" stop-opacity="0.5"/>
<stop offset="0.752365" stop-color="#5D34FF" stop-opacity="0.3"/>
</linearGradient>
<linearGradient id="paint1_linear_3335_3442" x1="17.272" y1="-3.33055" x2="68.7533" y2="38.1298" gradientUnits="userSpaceOnUse">
<stop offset="0.260545" stop-color="#AF9BFD"/>
<stop offset="0.56731" stop-color="#5F38FB" stop-opacity="0"/>
<stop offset="0.847569" stop-color="#6C47FF"/>
</linearGradient>
<linearGradient id="paint2_linear_3335_3442" x1="14.4079" y1="16.2531" x2="44.4491" y2="54.1725" gradientUnits="userSpaceOnUse">
<stop offset="0.129418" stop-color="#FFA485" stop-opacity="0.9"/>
<stop offset="0.408113" stop-color="#FF7445" stop-opacity="0.8"/>
<stop offset="0.85239" stop-color="#FF7445" stop-opacity="0.5"/>
</linearGradient>
<linearGradient id="paint3_linear_3335_3442" x1="17.8555" y1="17.6741" x2="41.893" y2="51.4795" gradientUnits="userSpaceOnUse">
<stop offset="0.238491" stop-color="#FDCBBA"/>
<stop offset="0.491823" stop-color="#F9774B" stop-opacity="0"/>
<stop offset="0.855406" stop-color="#F86A3A"/>
</linearGradient>
</defs>
</svg>
