<svg width="133" height="128" viewBox="0 0 133 128" fill="none" xmlns="http://www.w3.org/2000/svg">
<path d="M48.4473 6.53712C48.4473 9.80568 50.8509 12.5022 53.9808 12.9925C54.3183 12.9823 54.6558 12.9619 55.0036 12.9619C55.3513 12.9619 55.6889 12.9721 56.0264 12.9925C59.1563 12.5022 61.5599 9.80568 61.5599 6.53712C61.5599 2.92128 58.6244 0 55.0138 0C51.4032 0 48.4677 2.93149 48.4677 6.53712H48.4473Z" fill="#30239C"/>
<path d="M56.0164 12.9926C55.6788 12.9823 55.3413 12.9619 54.9935 12.9619C54.6458 12.9619 54.3082 12.9721 53.9707 12.9926C54.3082 13.0436 54.6458 13.0845 54.9935 13.0845C55.3413 13.0845 55.6788 13.0538 56.0164 12.9926Z" fill="#31249C"/>
<path d="M84.6875 12.7271C84.8818 12.9316 85.0864 13.1362 85.2807 13.351C85.0966 13.126 84.8921 12.9214 84.6875 12.7271Z" fill="#C9C9C9"/>
<path d="M73.6719 17.497C73.6719 18.8453 74.081 20.0915 74.7765 21.1333C75.2573 21.6134 75.7073 22.1139 76.1573 22.6144C77.2722 23.503 78.6837 24.0342 80.2282 24.0342C83.849 24.0342 86.7743 21.1027 86.7743 17.497C86.7743 15.924 86.2117 14.4736 85.281 13.3398C85.0866 13.1253 84.8821 12.9211 84.6877 12.7168C83.5217 11.6238 81.9465 10.9497 80.218 10.9497C76.5972 10.9497 73.6719 13.8812 73.6719 17.4868V17.497Z" fill="#30239C"/>
<path d="M76.1582 22.6244C75.7183 22.1137 75.2581 21.6132 74.7773 21.1433C75.1558 21.7051 75.6263 22.2056 76.1582 22.6244Z" fill="#31249C"/>
<path d="M25.0977 12.9517C25.0977 12.9517 25.159 12.8903 25.1897 12.8596C25.159 12.8903 25.1283 12.921 25.0977 12.9517Z" fill="#C9C9C9"/>
<path d="M29.7917 24.0442C31.3055 24.0442 32.6965 23.5232 33.8012 22.6652C34.2717 22.1239 34.7524 21.603 35.2638 21.0923C35.9491 20.0606 36.348 18.8247 36.348 17.4968C36.348 13.881 33.4125 10.9597 29.8019 10.9597C28.0018 10.9597 26.3755 11.6849 25.1992 12.8494C25.1685 12.88 25.1379 12.9106 25.1072 12.9413C23.9616 14.1159 23.2559 15.7196 23.2559 17.4968C23.2559 21.1127 26.1914 24.034 29.8019 24.034L29.7917 24.0442Z" fill="#30239C"/>
<path d="M35.2634 21.0923C34.752 21.5928 34.2713 22.1239 33.8008 22.6653C34.3633 22.2261 34.8645 21.6949 35.2634 21.0923Z" fill="#31249C"/>
<path d="M89.4525 34.4016C86.1795 34.4016 83.4792 36.802 82.9883 39.9275C82.9985 40.2646 83.019 40.6017 83.019 40.9489C83.019 41.2962 83.0087 41.6333 82.9883 41.9704C83.4792 45.0959 86.1795 47.4963 89.4525 47.4963C93.0734 47.4963 95.9986 44.5648 95.9986 40.9592C95.9986 37.3535 93.0631 34.422 89.4525 34.422V34.4016Z" fill="#30239C"/>
<path d="M82.9884 41.9601C82.9986 41.623 83.0191 41.2859 83.0191 40.9387C83.0191 40.5914 83.0088 40.2543 82.9884 39.9172C82.9373 40.2543 82.8965 40.5914 82.8965 40.9387C82.8965 41.2859 82.9271 41.623 82.9884 41.9601Z" fill="#31249C"/>
<path d="M20.5461 47.4858C23.8191 47.4858 26.5194 45.0854 27.0104 41.9599C27.0001 41.6228 26.9797 41.2857 26.9797 40.9385C26.9797 40.5912 26.9899 40.2541 27.0104 39.917C26.5194 36.7915 23.8191 34.3911 20.5461 34.3911C16.9253 34.3911 14 37.3226 14 40.9282C14 44.5339 16.9355 47.4654 20.5461 47.4654V47.4858Z" fill="#30239C"/>
<path d="M27.0111 39.9272C27.0009 40.2643 26.9805 40.6014 26.9805 40.9487C26.9805 41.296 26.9907 41.633 27.0111 41.9701C27.0622 41.633 27.103 41.296 27.103 40.9487C27.103 40.6014 27.0724 40.2643 27.0111 39.9272Z" fill="#31249C"/>
<g filter="url(#filter0_bd_3335_3393)">
<path d="M80.2278 57.8535C78.6833 57.8535 77.2616 58.3949 76.1364 59.2937C75.625 59.7023 75.1648 60.1926 74.7965 60.7441C69.7233 65.8002 62.7272 68.9258 55.0049 68.9258C47.2825 68.9258 40.3171 65.8206 35.2541 60.785C34.8654 60.2028 34.3847 59.6921 33.8323 59.2529C32.7175 58.3847 31.3162 57.8535 29.7922 57.8535C26.1714 57.8535 23.2461 60.785 23.2461 64.3906C23.2461 66.0658 23.8802 67.5877 24.9133 68.7419C25.0258 68.8645 25.1383 68.9768 25.2508 69.0994C32.4311 76.6579 42.4548 81.4791 53.624 81.8468C54.0639 81.9387 54.5241 81.9898 55.0049 81.9898C55.4856 81.9898 55.9356 81.9387 56.3857 81.8468C67.4833 81.4791 77.4661 76.709 84.6361 69.222C84.8714 68.9768 85.1066 68.7419 85.3317 68.4968C86.242 67.3732 86.7943 65.9432 86.7943 64.3906C86.7943 60.7748 83.8588 57.8535 80.2482 57.8535H80.2278Z" fill="url(#paint0_linear_3335_3393)" shape-rendering="crispEdges"/>
<path d="M75.1189 61.0676L75.1511 61.0355L75.1763 60.9977C75.5167 60.4878 75.9442 60.0317 76.4215 59.6505C77.4697 58.813 78.792 58.3101 80.2278 58.3101H80.2482C83.6077 58.3101 86.3377 61.028 86.3377 64.3906C86.3377 65.8281 85.8284 67.1535 84.9857 68.1984C84.8424 68.3541 84.6982 68.5023 84.5476 68.6571C84.4692 68.7376 84.3892 68.8198 84.3067 68.9058L84.3063 68.9061C77.2157 76.3103 67.3445 81.0268 56.3705 81.3904L56.332 81.3917L56.2943 81.3994C55.8713 81.4858 55.452 81.5332 55.0049 81.5332C54.5567 81.5332 54.1278 81.4856 53.7175 81.3998L53.6787 81.3917L53.6391 81.3904C42.5957 81.0268 32.6852 76.2611 25.5845 68.7877C25.5259 68.7239 25.4678 68.6632 25.4133 68.6063L25.4118 68.6048C25.3558 68.5463 25.3034 68.4916 25.2516 68.4352C24.291 67.3609 23.7027 65.9469 23.7027 64.3906C23.7027 61.0373 26.4234 58.3101 29.7922 58.3101C31.2073 58.3101 32.5104 58.8027 33.55 59.6117C34.0674 60.0235 34.5144 60.4993 34.8743 61.0385L34.8997 61.0765L34.9321 61.1088C40.0773 66.2262 47.1572 69.3824 55.0049 69.3824C62.853 69.3824 69.9636 66.2054 75.1189 61.0676Z" stroke="url(#paint1_linear_3335_3393)" stroke-width="0.913247" shape-rendering="crispEdges"/>
</g>
<g filter="url(#filter1_bd_3335_3393)">
<path d="M76.1211 27.7097C75.8749 26.5919 74.8899 25.776 73.7482 25.7648C67.7039 25.6642 62.1297 28.2574 58.3353 32.885C57.6077 33.7681 56.9809 34.6958 56.4213 35.6683C55.8728 34.6958 55.2348 33.7681 54.5073 32.885C50.7128 28.2574 45.0715 25.6754 39.0944 25.7648C37.9415 25.7871 36.9565 26.5919 36.7214 27.7097C35.4454 33.5669 36.8893 39.5805 40.6838 44.1969C44.0081 48.2432 48.7204 50.7247 53.8692 51.2165V57.029C53.8692 58.3926 54.9774 59.4992 56.3429 59.4992C57.7085 59.4992 58.8166 58.3926 58.8166 57.029V51.2165C64.0214 50.7582 68.8008 48.2768 72.1588 44.1969C75.9532 39.5693 77.3971 33.5557 76.1211 27.7097ZM44.5118 41.056C42.1277 38.1497 40.986 34.5058 41.2546 30.8171C44.9372 31.2754 48.2839 33.1086 50.6792 36.0148C52.6492 38.418 53.7573 41.3354 53.9364 44.3534C53.914 44.9458 53.9028 45.5494 53.9364 46.153C53.9364 46.1865 53.9364 46.2201 53.9364 46.2536C50.2539 45.7953 46.9071 43.9622 44.5118 41.056ZM68.3307 41.056C65.9466 43.9622 62.5887 45.7953 58.9061 46.2536C58.9061 46.2201 58.9061 46.1865 58.9061 46.153C58.9397 45.5494 58.9285 44.957 58.9061 44.3534C59.074 41.3242 60.1821 38.418 62.1633 36.0148C64.5475 33.1086 67.9054 31.2754 71.5879 30.8171C71.8565 34.5058 70.7148 38.1497 68.3307 41.056Z" fill="url(#paint2_linear_3335_3393)" shape-rendering="crispEdges"/>
<path d="M73.7406 26.2214L73.7437 26.2214C74.6676 26.2304 75.4731 26.8927 75.675 27.8071C76.9212 33.5166 75.5116 39.3875 71.806 43.907C68.5268 47.891 63.8606 50.314 58.7765 50.7617L58.36 50.7983V51.2165V57.029C58.36 58.1399 57.4569 59.0426 56.3429 59.0426C55.229 59.0426 54.3259 58.1399 54.3259 57.029V51.2165V50.8014L53.9127 50.762C48.884 50.2816 44.2834 47.8589 41.0366 43.907L41.0365 43.907C37.3312 39.399 35.9212 33.5281 37.1676 27.8069L37.1683 27.8037C37.3587 26.8983 38.1583 26.2401 39.1023 26.2213C44.9416 26.1343 50.4493 28.6563 54.1542 33.1745L54.1548 33.1754C54.8658 34.0383 55.4885 34.944 56.0235 35.8926L56.4173 36.5907L56.817 35.896C57.3657 34.9427 57.9783 34.0364 58.6877 33.1754L58.6884 33.1745C62.3943 28.6549 67.8356 26.1231 73.7406 26.2214ZM44.1588 41.3456L44.1595 41.3464C46.6288 44.3424 50.0813 46.234 53.88 46.7067L54.393 46.7706V46.2536V46.2534V46.2532V46.253V46.2528V46.2526V46.2524V46.2522V46.252V46.2518V46.2516V46.2514V46.2513V46.2511V46.2509V46.2507V46.2505V46.2503V46.2501V46.2499V46.2497V46.2495V46.2493V46.2491V46.2489V46.2487V46.2485V46.2483V46.2481V46.2479V46.2477V46.2475V46.2473V46.2471V46.2469V46.2467V46.2465V46.2463V46.2461V46.2459V46.2457V46.2456V46.2454V46.2452V46.245V46.2448V46.2446V46.2444V46.2442V46.244V46.2438V46.2436V46.2434V46.2432V46.243V46.2428V46.2426V46.2424V46.2422V46.242V46.2418V46.2416V46.2414V46.2412V46.241V46.2408V46.2406V46.2404V46.2402V46.2401V46.2399V46.2397V46.2395V46.2393V46.2391V46.2389V46.2387V46.2385V46.2383V46.2381V46.2379V46.2377V46.2375V46.2373V46.2371V46.2369V46.2367V46.2365V46.2363V46.2361V46.2359V46.2357V46.2355V46.2353V46.2351V46.2349V46.2347V46.2346V46.2344V46.2342V46.234V46.2338V46.2336V46.2334V46.2332V46.233V46.2328V46.2326V46.2324V46.2322V46.232V46.2318V46.2316V46.2314V46.2312V46.231V46.2308V46.2306V46.2304V46.2302V46.23V46.2298V46.2296V46.2294V46.2292V46.229V46.2289V46.2287V46.2285V46.2283V46.2281V46.2279V46.2277V46.2275V46.2273V46.2271V46.2269V46.2267V46.2265V46.2263V46.2261V46.2259V46.2257V46.2255V46.2253V46.2251V46.2249V46.2247V46.2245V46.2243V46.2241V46.2239V46.2237V46.2235V46.2234V46.2232V46.223V46.2228V46.2226V46.2224V46.2222V46.222V46.2218V46.2216V46.2214V46.2212V46.221V46.2208V46.2206V46.2204V46.2202V46.22V46.2198V46.2196V46.2194V46.2192V46.219V46.2188V46.2186V46.2184V46.2182V46.218V46.2178V46.2177V46.2175V46.2173V46.2171V46.2169V46.2167V46.2165V46.2163V46.2161V46.2159V46.2157V46.2155V46.2153V46.2151V46.2149V46.2147V46.2145V46.2143V46.2141V46.2139V46.2137V46.2135V46.2133V46.2131V46.2129V46.2127V46.2125V46.2123V46.2122V46.212V46.2118V46.2116V46.2114V46.2112V46.211V46.2108V46.2106V46.2104V46.2102V46.21V46.2098V46.2096V46.2094V46.2092V46.209V46.2088V46.2086V46.2084V46.2082V46.208V46.2078V46.2076V46.2074V46.2072V46.207V46.2068V46.2066V46.2065V46.2063V46.2061V46.2059V46.2057V46.2055V46.2053V46.2051V46.2049V46.2047V46.2045V46.2043V46.2041V46.2039V46.2037V46.2035V46.2033V46.2031V46.2029V46.2027V46.2025V46.2023V46.2021V46.2019V46.2017V46.2015V46.2013V46.2011V46.201V46.2008V46.2006V46.2004V46.2002V46.2V46.1998V46.1996V46.1994V46.1992V46.199V46.1988V46.1986V46.1984V46.1982V46.198V46.1978V46.1976V46.1974V46.1972V46.197V46.1968V46.1966V46.1964V46.1962V46.196V46.1958V46.1956V46.1954V46.1953V46.1951V46.1949V46.1947V46.1945V46.1943V46.1941V46.1939V46.1937V46.1935V46.1933V46.1931V46.1929V46.1927V46.1925V46.1923V46.1921V46.1919V46.1917V46.1915V46.1913V46.1911V46.1909V46.1907V46.1905V46.1903V46.1901V46.1899V46.1898V46.1896V46.1894V46.1892V46.189V46.1888V46.1886V46.1884V46.1882V46.188V46.1878V46.1876V46.1874V46.1872V46.187V46.1868V46.1866V46.1864V46.1862V46.186V46.1858V46.1856V46.1854V46.1852V46.185V46.1848V46.1846V46.1844V46.1842V46.1841V46.1839V46.1837V46.1835V46.1833V46.1831V46.1829V46.1827V46.1825V46.1823V46.1821V46.1819V46.1817V46.1815V46.1813V46.1811V46.1809V46.1807V46.1805V46.1803V46.1801V46.1799V46.1797V46.1795V46.1793V46.1791V46.1789V46.1787V46.1786V46.1784V46.1782V46.178V46.1778V46.1776V46.1774V46.1772V46.177V46.1768V46.1766V46.1764V46.1762V46.176V46.1758V46.1756V46.1754V46.1752V46.175V46.1748V46.1746V46.1744V46.1742V46.174V46.1738V46.1736V46.1734V46.1732V46.173V46.1729V46.1727V46.1725V46.1723V46.1721V46.1719V46.1717V46.1715V46.1713V46.1711V46.1709V46.1707V46.1705V46.1703V46.1701V46.1699V46.1697V46.1695V46.1693V46.1691V46.1689V46.1687V46.1685V46.1683V46.1681V46.1679V46.1677V46.1675V46.1674V46.1672V46.167V46.1668V46.1666V46.1664V46.1662V46.166V46.1658V46.1656V46.1654V46.1652V46.165V46.1648V46.1646V46.1644V46.1642V46.164V46.1638V46.1636V46.1634V46.1632V46.163V46.1628V46.1626V46.1624V46.1622V46.162V46.1619V46.1617V46.1615V46.1613V46.1611V46.1609V46.1607V46.1605V46.1603V46.1601V46.1599V46.1597V46.1595V46.1593V46.1591V46.1589V46.1587V46.1585V46.1583V46.1581V46.1579V46.1577V46.1575V46.1573V46.1571V46.1569V46.1567V46.1565V46.1563V46.1562V46.156V46.1558V46.1556V46.1554V46.1552V46.155V46.1548V46.1546V46.1544V46.1542V46.154V46.1538V46.1536V46.1534V46.1532V46.153V46.1403L54.3923 46.1276C54.3599 45.5453 54.3705 44.9583 54.3927 44.3706L54.3935 44.3485L54.3922 44.3263C54.2075 41.2142 53.0646 38.2045 51.0324 35.7253L51.0316 35.7244C48.5623 32.7284 45.1098 30.8368 41.311 30.364L40.8341 30.3047L40.7992 30.784C40.5221 34.5892 41.7003 38.3487 44.1588 41.3456ZM58.4495 46.2536V46.7706L58.9625 46.7067C62.7606 46.2341 66.225 44.3428 68.6838 41.3456C71.1422 38.3487 72.3204 34.5892 72.0433 30.784L72.0084 30.3047L71.5315 30.364C67.7335 30.8367 64.2692 32.7279 61.8105 35.725C59.7669 38.2042 58.6234 41.2034 58.4502 44.3281L58.449 44.3492L58.4498 44.3703C58.472 44.9696 58.4826 45.5453 58.4502 46.1276L58.4495 46.1403V46.153V46.1532V46.1534V46.1536V46.1538V46.154V46.1542V46.1544V46.1546V46.1548V46.155V46.1552V46.1554V46.1556V46.1558V46.156V46.1562V46.1563V46.1565V46.1567V46.1569V46.1571V46.1573V46.1575V46.1577V46.1579V46.1581V46.1583V46.1585V46.1587V46.1589V46.1591V46.1593V46.1595V46.1597V46.1599V46.1601V46.1603V46.1605V46.1607V46.1609V46.1611V46.1613V46.1615V46.1617V46.1619V46.162V46.1622V46.1624V46.1626V46.1628V46.163V46.1632V46.1634V46.1636V46.1638V46.164V46.1642V46.1644V46.1646V46.1648V46.165V46.1652V46.1654V46.1656V46.1658V46.166V46.1662V46.1664V46.1666V46.1668V46.167V46.1672V46.1674V46.1675V46.1677V46.1679V46.1681V46.1683V46.1685V46.1687V46.1689V46.1691V46.1693V46.1695V46.1697V46.1699V46.1701V46.1703V46.1705V46.1707V46.1709V46.1711V46.1713V46.1715V46.1717V46.1719V46.1721V46.1723V46.1725V46.1727V46.1729V46.173V46.1732V46.1734V46.1736V46.1738V46.174V46.1742V46.1744V46.1746V46.1748V46.175V46.1752V46.1754V46.1756V46.1758V46.176V46.1762V46.1764V46.1766V46.1768V46.177V46.1772V46.1774V46.1776V46.1778V46.178V46.1782V46.1784V46.1786V46.1787V46.1789V46.1791V46.1793V46.1795V46.1797V46.1799V46.1801V46.1803V46.1805V46.1807V46.1809V46.1811V46.1813V46.1815V46.1817V46.1819V46.1821V46.1823V46.1825V46.1827V46.1829V46.1831V46.1833V46.1835V46.1837V46.1839V46.1841V46.1842V46.1844V46.1846V46.1848V46.185V46.1852V46.1854V46.1856V46.1858V46.186V46.1862V46.1864V46.1866V46.1868V46.187V46.1872V46.1874V46.1876V46.1878V46.188V46.1882V46.1884V46.1886V46.1888V46.189V46.1892V46.1894V46.1896V46.1898V46.1899V46.1901V46.1903V46.1905V46.1907V46.1909V46.1911V46.1913V46.1915V46.1917V46.1919V46.1921V46.1923V46.1925V46.1927V46.1929V46.1931V46.1933V46.1935V46.1937V46.1939V46.1941V46.1943V46.1945V46.1947V46.1949V46.1951V46.1953V46.1954V46.1956V46.1958V46.196V46.1962V46.1964V46.1966V46.1968V46.197V46.1972V46.1974V46.1976V46.1978V46.198V46.1982V46.1984V46.1986V46.1988V46.199V46.1992V46.1994V46.1996V46.1998V46.2V46.2002V46.2004V46.2006V46.2008V46.201V46.2011V46.2013V46.2015V46.2017V46.2019V46.2021V46.2023V46.2025V46.2027V46.2029V46.2031V46.2033V46.2035V46.2037V46.2039V46.2041V46.2043V46.2045V46.2047V46.2049V46.2051V46.2053V46.2055V46.2057V46.2059V46.2061V46.2063V46.2065V46.2066V46.2068V46.207V46.2072V46.2074V46.2076V46.2078V46.208V46.2082V46.2084V46.2086V46.2088V46.209V46.2092V46.2094V46.2096V46.2098V46.21V46.2102V46.2104V46.2106V46.2108V46.211V46.2112V46.2114V46.2116V46.2118V46.212V46.2122V46.2123V46.2125V46.2127V46.2129V46.2131V46.2133V46.2135V46.2137V46.2139V46.2141V46.2143V46.2145V46.2147V46.2149V46.2151V46.2153V46.2155V46.2157V46.2159V46.2161V46.2163V46.2165V46.2167V46.2169V46.2171V46.2173V46.2175V46.2177V46.2178V46.218V46.2182V46.2184V46.2186V46.2188V46.219V46.2192V46.2194V46.2196V46.2198V46.22V46.2202V46.2204V46.2206V46.2208V46.221V46.2212V46.2214V46.2216V46.2218V46.222V46.2222V46.2224V46.2226V46.2228V46.223V46.2232V46.2234V46.2235V46.2237V46.2239V46.2241V46.2243V46.2245V46.2247V46.2249V46.2251V46.2253V46.2255V46.2257V46.2259V46.2261V46.2263V46.2265V46.2267V46.2269V46.2271V46.2273V46.2275V46.2277V46.2279V46.2281V46.2283V46.2285V46.2287V46.2289V46.229V46.2292V46.2294V46.2296V46.2298V46.23V46.2302V46.2304V46.2306V46.2308V46.231V46.2312V46.2314V46.2316V46.2318V46.232V46.2322V46.2324V46.2326V46.2328V46.233V46.2332V46.2334V46.2336V46.2338V46.234V46.2342V46.2344V46.2346V46.2347V46.2349V46.2351V46.2353V46.2355V46.2357V46.2359V46.2361V46.2363V46.2365V46.2367V46.2369V46.2371V46.2373V46.2375V46.2377V46.2379V46.2381V46.2383V46.2385V46.2387V46.2389V46.2391V46.2393V46.2395V46.2397V46.2399V46.2401V46.2402V46.2404V46.2406V46.2408V46.241V46.2412V46.2414V46.2416V46.2418V46.242V46.2422V46.2424V46.2426V46.2428V46.243V46.2432V46.2434V46.2436V46.2438V46.244V46.2442V46.2444V46.2446V46.2448V46.245V46.2452V46.2454V46.2456V46.2457V46.2459V46.2461V46.2463V46.2465V46.2467V46.2469V46.2471V46.2473V46.2475V46.2477V46.2479V46.2481V46.2483V46.2485V46.2487V46.2489V46.2491V46.2493V46.2495V46.2497V46.2499V46.2501V46.2503V46.2505V46.2507V46.2509V46.2511V46.2513V46.2514V46.2516V46.2518V46.252V46.2522V46.2524V46.2526V46.2528V46.253V46.2532V46.2534V46.2536Z" stroke="url(#paint3_linear_3335_3393)" stroke-width="0.913247" shape-rendering="crispEdges"/>
</g>
<defs>
<filter id="filter0_bd_3335_3393" x="0.414912" y="35.0223" width="132.042" height="92.6298" filterUnits="userSpaceOnUse" color-interpolation-filters="sRGB">
<feFlood flood-opacity="0" result="BackgroundImageFix"/>
<feGaussianBlur in="BackgroundImageFix" stdDeviation="2.28312"/>
<feComposite in2="SourceAlpha" operator="in" result="effect1_backgroundBlur_3335_3393"/>
<feColorMatrix in="SourceAlpha" type="matrix" values="0 0 0 0 0 0 0 0 0 0 0 0 0 0 0 0 0 0 127 0" result="hardAlpha"/>
<feOffset dx="11.4156" dy="11.4156"/>
<feGaussianBlur stdDeviation="17.1234"/>
<feComposite in2="hardAlpha" operator="out"/>
<feColorMatrix type="matrix" values="0 0 0 0 0.00392157 0 0 0 0 0.054902 0 0 0 0 0.243137 0 0 0 0.14 0"/>
<feBlend mode="normal" in2="effect1_backgroundBlur_3335_3393" result="effect2_dropShadow_3335_3393"/>
<feBlend mode="normal" in="SourceGraphic" in2="effect2_dropShadow_3335_3393" result="shape"/>
</filter>
<filter id="filter1_bd_3335_3393" x="13.4364" y="2.93078" width="108.8" height="102.231" filterUnits="userSpaceOnUse" color-interpolation-filters="sRGB">
<feFlood flood-opacity="0" result="BackgroundImageFix"/>
<feGaussianBlur in="BackgroundImageFix" stdDeviation="2.28312"/>
<feComposite in2="SourceAlpha" operator="in" result="effect1_backgroundBlur_3335_3393"/>
<feColorMatrix in="SourceAlpha" type="matrix" values="0 0 0 0 0 0 0 0 0 0 0 0 0 0 0 0 0 0 127 0" result="hardAlpha"/>
<feOffset dx="11.4156" dy="11.4156"/>
<feGaussianBlur stdDeviation="17.1234"/>
<feComposite in2="hardAlpha" operator="out"/>
<feColorMatrix type="matrix" values="0 0 0 0 0.00392157 0 0 0 0 0.054902 0 0 0 0 0.243137 0 0 0 0.14 0"/>
<feBlend mode="normal" in2="effect1_backgroundBlur_3335_3393" result="effect2_dropShadow_3335_3393"/>
<feBlend mode="normal" in="SourceGraphic" in2="effect2_dropShadow_3335_3393" result="shape"/>
</filter>
<linearGradient id="paint0_linear_3335_3393" x1="-27.4542" y1="46.2398" x2="165.128" y2="136.967" gradientUnits="userSpaceOnUse">
<stop stop-color="#8566FF" stop-opacity="0.7"/>
<stop offset="0.394001" stop-color="#8566FF" stop-opacity="0.7"/>
<stop offset="0.577136" stop-color="#5D34FF" stop-opacity="0.5"/>
<stop offset="0.752365" stop-color="#5D34FF" stop-opacity="0.3"/>
</linearGradient>
<linearGradient id="paint1_linear_3335_3393" x1="5.97787" y1="55.0445" x2="31.7738" y2="111.647" gradientUnits="userSpaceOnUse">
<stop offset="0.260545" stop-color="#AF9BFD"/>
<stop offset="0.56731" stop-color="#5F38FB" stop-opacity="0"/>
<stop offset="0.847569" stop-color="#6C47FF"/>
</linearGradient>
<linearGradient id="paint2_linear_3335_3393" x1="31.702" y1="19.9753" x2="70.9426" y2="70.0603" gradientUnits="userSpaceOnUse">
<stop offset="0.129418" stop-color="#FFA485" stop-opacity="0.9"/>
<stop offset="0.408113" stop-color="#FF7445" stop-opacity="0.8"/>
<stop offset="0.85239" stop-color="#FF7445" stop-opacity="0.5"/>
</linearGradient>
<linearGradient id="paint3_linear_3335_3393" x1="36.2676" y1="21.8363" x2="67.6313" y2="66.4381" gradientUnits="userSpaceOnUse">
<stop offset="0.238491" stop-color="#FDCBBA"/>
<stop offset="0.491823" stop-color="#F9774B" stop-opacity="0"/>
<stop offset="0.855406" stop-color="#F86A3A"/>
</linearGradient>
</defs>
</svg>
