<svg width="41" height="8" viewBox="0 0 41 8" fill="none" xmlns="http://www.w3.org/2000/svg">
    <path d="M0.94 7.5V0.5H2.24V6.3H5.47V7.5H0.94ZM6.95563 7.5V0.5H11.5356V1.68H8.23563V6.32H11.5756V7.5H6.95563ZM7.55563 4.5V3.34H11.0256V4.5H7.55563ZM13.2056 7.5V0.5H16.0156C16.5223 0.5 16.979 0.583333 17.3856 0.75C17.799 0.916666 18.1523 1.15667 18.4456 1.47C18.7456 1.78333 18.9723 2.15333 19.1256 2.58C19.2856 3.00667 19.3656 3.48 19.3656 4C19.3656 4.52 19.2856 4.99667 19.1256 5.43C18.9723 5.85667 18.749 6.22667 18.4556 6.54C18.1623 6.84667 17.809 7.08333 17.3956 7.25C16.9823 7.41667 16.5223 7.5 16.0156 7.5H13.2056ZM14.5056 6.49L14.4056 6.3H15.9656C16.2923 6.3 16.5823 6.24667 16.8356 6.14C17.0956 6.03333 17.3156 5.88 17.4956 5.68C17.6756 5.48 17.8123 5.24 17.9056 4.96C17.999 4.67333 18.0456 4.35333 18.0456 4C18.0456 3.64667 17.999 3.33 17.9056 3.05C17.8123 2.76333 17.6723 2.52 17.4856 2.32C17.3056 2.12 17.089 1.96667 16.8356 1.86C16.5823 1.75333 16.2923 1.7 15.9656 1.7H14.3756L14.5056 1.53V6.49ZM23.954 7.6C23.4273 7.6 22.9407 7.51 22.494 7.33C22.0473 7.14333 21.6573 6.88667 21.324 6.56C20.9973 6.23333 20.744 5.85333 20.564 5.42C20.384 4.98 20.294 4.50333 20.294 3.99C20.294 3.48333 20.384 3.01333 20.564 2.58C20.7507 2.14 21.0107 1.76 21.344 1.44C21.6773 1.11333 22.0673 0.86 22.514 0.68C22.9673 0.5 23.454 0.409999 23.974 0.409999C24.3407 0.409999 24.694 0.46 25.034 0.56C25.374 0.66 25.6807 0.8 25.954 0.98C26.2273 1.16 26.454 1.36333 26.634 1.59L25.814 2.45C25.6273 2.27 25.434 2.12 25.234 2C25.0407 1.88 24.8373 1.78667 24.624 1.72C24.4107 1.65333 24.1907 1.62 23.964 1.62C23.6307 1.62 23.3207 1.68 23.034 1.8C22.754 1.92 22.5073 2.08667 22.294 2.3C22.0873 2.51333 21.924 2.76333 21.804 3.05C21.684 3.33667 21.624 3.65 21.624 3.99C21.624 4.31667 21.684 4.62667 21.804 4.92C21.9307 5.21333 22.104 5.47 22.324 5.69C22.544 5.91 22.7973 6.08333 23.084 6.21C23.3773 6.33 23.6873 6.39 24.014 6.39C24.2607 6.39 24.4907 6.35333 24.704 6.28C24.9173 6.20667 25.1073 6.10667 25.274 5.98C25.4407 5.84667 25.5673 5.69333 25.654 5.52C25.7473 5.34667 25.794 5.16 25.794 4.96V4.74L25.974 4.95H23.904V3.79H27.074C27.0873 3.86333 27.0973 3.94667 27.104 4.04C27.1107 4.12667 27.114 4.21333 27.114 4.3C27.1207 4.38 27.124 4.45 27.124 4.51C27.124 4.97 27.044 5.39 26.884 5.77C26.724 6.14333 26.4973 6.46667 26.204 6.74C25.9173 7.01333 25.5807 7.22667 25.194 7.38C24.814 7.52667 24.4007 7.6 23.954 7.6ZM28.4888 7.5V0.5H33.0688V1.68H29.7688V6.32H33.1088V7.5H28.4888ZM29.0888 4.5V3.34H32.5588V4.5H29.0888ZM34.7388 7.5V0.5H37.7788C38.1988 0.5 38.5822 0.6 38.9288 0.8C39.2755 0.993333 39.5488 1.26 39.7488 1.6C39.9555 1.93333 40.0588 2.31 40.0588 2.73C40.0588 3.13 39.9555 3.5 39.7488 3.84C39.5488 4.17333 39.2755 4.44 38.9288 4.64C38.5888 4.83333 38.2055 4.93 37.7788 4.93H36.0088V7.5H34.7388ZM38.7988 7.5L37.0188 4.34L38.3588 4.09L40.3388 7.51L38.7988 7.5ZM36.0088 3.8H37.7888C37.9822 3.8 38.1488 3.75667 38.2888 3.67C38.4355 3.57667 38.5488 3.45 38.6288 3.29C38.7088 3.13 38.7488 2.95333 38.7488 2.76C38.7488 2.54 38.6988 2.35 38.5988 2.19C38.4988 2.03 38.3588 1.90333 38.1788 1.81C37.9988 1.71667 37.7922 1.67 37.5588 1.67H36.0088V3.8Z" fill="white"/>
    </svg>
    