<svg width="15" height="14" viewBox="0 0 15 14" fill="none" xmlns="http://www.w3.org/2000/svg">
<path d="M0.699951 1.25C0.699951 0.5625 1.2312 0 1.94995 0H3.44995C4.13745 0 4.69995 0.5625 4.69995 1.25V2.75C4.69995 3.46875 4.13745 4 3.44995 4H1.94995C1.2312 4 0.699951 3.46875 0.699951 2.75V1.25ZM0.699951 6.25C0.699951 5.5625 1.2312 5 1.94995 5H3.44995C4.13745 5 4.69995 5.5625 4.69995 6.25V7.75C4.69995 8.46875 4.13745 9 3.44995 9H1.94995C1.2312 9 0.699951 8.46875 0.699951 7.75V6.25ZM4.69995 11.25V12.75C4.69995 13.4688 4.13745 14 3.44995 14H1.94995C1.2312 14 0.699951 13.4688 0.699951 12.75V11.25C0.699951 10.5625 1.2312 10 1.94995 10H3.44995C4.13745 10 4.69995 10.5625 4.69995 11.25ZM5.69995 1.25C5.69995 0.5625 6.2312 0 6.94995 0H8.44995C9.13745 0 9.69995 0.5625 9.69995 1.25V2.75C9.69995 3.46875 9.13745 4 8.44995 4H6.94995C6.2312 4 5.69995 3.46875 5.69995 2.75V1.25ZM9.69995 6.25V7.75C9.69995 8.46875 9.13745 9 8.44995 9H6.94995C6.2312 9 5.69995 8.46875 5.69995 7.75V6.25C5.69995 5.5625 6.2312 5 6.94995 5H8.44995C9.13745 5 9.69995 5.5625 9.69995 6.25ZM5.69995 11.25C5.69995 10.5625 6.2312 10 6.94995 10H8.44995C9.13745 10 9.69995 10.5625 9.69995 11.25V12.75C9.69995 13.4688 9.13745 14 8.44995 14H6.94995C6.2312 14 5.69995 13.4688 5.69995 12.75V11.25ZM14.7 1.25V2.75C14.7 3.46875 14.1375 4 13.45 4H11.95C11.2312 4 10.7 3.46875 10.7 2.75V1.25C10.7 0.5625 11.2312 0 11.95 0H13.45C14.1375 0 14.7 0.5625 14.7 1.25ZM10.7 6.25C10.7 5.5625 11.2312 5 11.95 5H13.45C14.1375 5 14.7 5.5625 14.7 6.25V7.75C14.7 8.46875 14.1375 9 13.45 9H11.95C11.2312 9 10.7 8.46875 10.7 7.75V6.25ZM14.7 11.25V12.75C14.7 13.4688 14.1375 14 13.45 14H11.95C11.2312 14 10.7 13.4688 10.7 12.75V11.25C10.7 10.5625 11.2312 10 11.95 10H13.45C14.1375 10 14.7 10.5625 14.7 11.25Z" fill="#000D3D"/>
</svg>
