<svg width="43" height="42" viewBox="0 0 43 42" fill="none" xmlns="http://www.w3.org/2000/svg">
<path d="M22.8438 19.4688C25.4375 19.1875 27.4688 17.125 27.7188 14.5H27.5C25.0938 14.5 23.0625 16.0625 22.2812 18.1875C22.0312 17.6562 21.6875 17.1562 21.3125 16.7188C22.5 14.5 24.8125 13 27.5 13H28.25C28.7812 13 29.25 13.4688 29.25 14C29.25 17.5625 26.5938 20.5 23.1562 20.9375C23.0938 20.4375 23 19.9688 22.8438 19.4688ZM14.75 16.5V17C14.75 20.0625 17.1875 22.5 20.25 22.5H20.5V22C20.5 18.9688 18.0312 16.5 15 16.5H14.75ZM22 22V22.5V24V28.25C22 28.6875 21.6562 29 21.25 29C20.8125 29 20.5 28.6875 20.5 28.25V24H20.25C16.375 24 13.25 20.875 13.25 17V16C13.25 15.4688 13.6875 15 14.25 15H15C18.8438 15 22 18.1562 22 22Z" fill="white"/>
<rect x="0.75" y="0.5" width="41" height="41" rx="20.5" stroke="white" stroke-opacity="0.4"/>
</svg>
