<svg width="48" height="48" viewBox="0 0 48 48" fill="none" xmlns="http://www.w3.org/2000/svg">
<rect width="48" height="48" rx="24" fill="white"/>
<path d="M25.5938 22.4688C28.1875 22.1875 30.2188 20.125 30.4688 17.5H30.25C27.8438 17.5 25.8125 19.0625 25.0312 21.1875C24.7812 20.6562 24.4375 20.1562 24.0625 19.7188C25.25 17.5 27.5625 16 30.25 16H31C31.5312 16 32 16.4688 32 17C32 20.5625 29.3438 23.5 25.9062 23.9375C25.8438 23.4375 25.75 22.9688 25.5938 22.4688ZM17.5 19.5V20C17.5 23.0625 19.9375 25.5 23 25.5H23.25V25C23.25 21.9688 20.7812 19.5 17.75 19.5H17.5ZM24.75 25V25.5V27V31.25C24.75 31.6875 24.4062 32 24 32C23.5625 32 23.25 31.6875 23.25 31.25V27H23C19.125 27 16 23.875 16 20V19C16 18.4688 16.4375 18 17 18H17.75C21.5938 18 24.75 21.1562 24.75 25Z" fill="#000D3D"/>
</svg>
