<svg width="17" height="16" viewBox="0 0 17 16" fill="none" xmlns="http://www.w3.org/2000/svg">
<path opacity="0.6" d="M9.6936 6.46875C12.2874 6.1875 14.3186 4.125 14.5686 1.5H14.3499C11.9436 1.5 9.91235 3.0625 9.1311 5.1875C8.8811 4.65625 8.53735 4.15625 8.16235 3.71875C9.34985 1.5 11.6624 0 14.3499 0H15.0999C15.6311 0 16.0999 0.46875 16.0999 1C16.0999 4.5625 13.4436 7.5 10.0061 7.9375C9.9436 7.4375 9.84985 6.96875 9.6936 6.46875ZM1.59985 3.5V4C1.59985 7.0625 4.03735 9.5 7.09985 9.5H7.34985V9C7.34985 5.96875 4.8811 3.5 1.84985 3.5H1.59985ZM8.84985 9V9.5V11V15.25C8.84985 15.6875 8.5061 16 8.09985 16C7.66235 16 7.34985 15.6875 7.34985 15.25V11H7.09985C3.22485 11 0.0998535 7.875 0.0998535 4V3C0.0998535 2.46875 0.537354 2 1.09985 2H1.84985C5.6936 2 8.84985 5.15625 8.84985 9Z" fill="white"/>
</svg>
