<svg width="347" height="291" viewBox="0 0 347 291" fill="none" xmlns="http://www.w3.org/2000/svg">
<rect y="23" width="347" height="268" rx="12" fill="white"/>
<rect x="0.5" y="23.5" width="346" height="267" rx="11.5" stroke="#D0BCFF" stroke-opacity="0.4"/>
<path d="M25.568 89V77.8H30.128C30.736 77.8 31.2853 77.9547 31.776 78.264C32.2773 78.5627 32.6773 78.9733 32.976 79.496C33.2747 80.0187 33.424 80.6 33.424 81.24C33.424 81.88 33.2747 82.4613 32.976 82.984C32.6773 83.5067 32.2773 83.928 31.776 84.248C31.2853 84.5573 30.736 84.712 30.128 84.712H27.296V89H25.568ZM27.296 83.048H30.096C30.384 83.048 30.6453 82.968 30.88 82.808C31.1147 82.6373 31.3013 82.4187 31.44 82.152C31.5893 81.8747 31.664 81.5707 31.664 81.24C31.664 80.9093 31.5893 80.6107 31.44 80.344C31.3013 80.0773 31.1147 79.864 30.88 79.704C30.6453 79.544 30.384 79.464 30.096 79.464H27.296V83.048ZM35.5646 89V80.6H37.2126V89H35.5646ZM36.3646 78.744C36.0126 78.744 35.7406 78.6533 35.5486 78.472C35.3566 78.2907 35.2606 78.0347 35.2606 77.704C35.2606 77.3947 35.3566 77.144 35.5486 76.952C35.7513 76.76 36.0233 76.664 36.3646 76.664C36.7166 76.664 36.9886 76.7547 37.1806 76.936C37.3726 77.1173 37.4686 77.3733 37.4686 77.704C37.4686 78.0133 37.3673 78.264 37.1646 78.456C36.9726 78.648 36.706 78.744 36.3646 78.744ZM39.7458 89V80.6H41.3938V82.328L41.1058 82.52C41.2124 82.1467 41.4204 81.8053 41.7298 81.496C42.0391 81.176 42.4071 80.92 42.8338 80.728C43.2604 80.5253 43.6978 80.424 44.1458 80.424C44.7858 80.424 45.3191 80.552 45.7458 80.808C46.1724 81.0533 46.4924 81.432 46.7058 81.944C46.9191 82.456 47.0258 83.1013 47.0258 83.88V89H45.3778V83.992C45.3778 83.512 45.3138 83.1173 45.1858 82.808C45.0578 82.488 44.8604 82.2587 44.5938 82.12C44.3271 81.9707 43.9964 81.9067 43.6018 81.928C43.2818 81.928 42.9884 81.9813 42.7218 82.088C42.4551 82.184 42.2204 82.3227 42.0178 82.504C41.8258 82.6853 41.6711 82.8987 41.5538 83.144C41.4471 83.3787 41.3938 83.6347 41.3938 83.912V89H40.5778C40.4391 89 40.3004 89 40.1618 89C40.0231 89 39.8844 89 39.7458 89ZM52.9938 89L57.3298 77.8H59.0898L63.3938 89H61.5538L58.9938 82.248C58.9618 82.1733 58.8978 81.992 58.8018 81.704C58.7164 81.416 58.6151 81.096 58.4978 80.744C58.3804 80.392 58.2738 80.072 58.1778 79.784C58.0818 79.4853 58.0178 79.2933 57.9858 79.208L58.3538 79.192C58.2898 79.3733 58.2098 79.6027 58.1138 79.88C58.0284 80.1573 57.9324 80.4507 57.8258 80.76C57.7298 81.0693 57.6338 81.3627 57.5378 81.64C57.4418 81.9067 57.3618 82.1307 57.2977 82.312L54.7538 89H52.9938ZM54.9138 86.216L55.5538 84.552H60.6418L61.3778 86.216H54.9138ZM68.8209 89.16C68.2129 89.16 67.6475 89.08 67.1249 88.92C66.6129 88.76 66.1435 88.52 65.7169 88.2C65.3009 87.8693 64.9275 87.464 64.5969 86.984L65.7809 85.624C66.3035 86.3707 66.8049 86.888 67.2849 87.176C67.7649 87.464 68.3355 87.608 68.9969 87.608C69.4022 87.608 69.7702 87.544 70.1009 87.416C70.4315 87.288 70.6929 87.112 70.8849 86.888C71.0769 86.664 71.1729 86.408 71.1729 86.12C71.1729 85.928 71.1409 85.7467 71.0769 85.576C71.0129 85.4053 70.9115 85.2507 70.7729 85.112C70.6449 84.9733 70.4742 84.8453 70.2609 84.728C70.0582 84.6107 69.8182 84.5093 69.5409 84.424C69.2635 84.328 68.9435 84.248 68.5809 84.184C68.0049 84.0667 67.5035 83.912 67.0769 83.72C66.6502 83.528 66.2929 83.288 66.0049 83C65.7169 82.712 65.5035 82.3867 65.3649 82.024C65.2262 81.6507 65.1569 81.2347 65.1569 80.776C65.1569 80.328 65.2529 79.912 65.4449 79.528C65.6475 79.144 65.9195 78.8133 66.2609 78.536C66.6129 78.248 67.0235 78.0293 67.4929 77.88C67.9622 77.72 68.4689 77.64 69.0129 77.64C69.5889 77.64 70.1169 77.7147 70.5969 77.864C71.0769 78.0133 71.5035 78.2373 71.8769 78.536C72.2502 78.824 72.5595 79.1813 72.8049 79.608L71.5889 80.808C71.3755 80.456 71.1355 80.1627 70.8689 79.928C70.6022 79.6827 70.3089 79.5013 69.9889 79.384C69.6689 79.256 69.3275 79.192 68.9649 79.192C68.5489 79.192 68.1862 79.256 67.8769 79.384C67.5675 79.512 67.3222 79.6933 67.1409 79.928C66.9702 80.152 66.8849 80.4187 66.8849 80.728C66.8849 80.952 66.9275 81.16 67.0129 81.352C67.0982 81.5333 67.2262 81.6987 67.3969 81.848C67.5782 81.9867 67.8182 82.1147 68.1169 82.232C68.4155 82.3387 68.7729 82.4347 69.1889 82.52C69.7755 82.648 70.2982 82.8133 70.7569 83.016C71.2155 83.208 71.6049 83.4373 71.9249 83.704C72.2449 83.9707 72.4849 84.2693 72.6449 84.6C72.8155 84.9307 72.9009 85.288 72.9009 85.672C72.9009 86.3867 72.7355 87.0053 72.4049 87.528C72.0742 88.0507 71.6049 88.456 70.9969 88.744C70.3889 89.0213 69.6635 89.16 68.8209 89.16ZM74.9333 89V87.4H76.7413V79.4H74.9333V77.8H80.2773V79.4H78.4693V87.4H80.2773V89H74.9333ZM89.8583 89L86.2903 77.8H88.1303L90.2903 84.808C90.3543 84.9787 90.4129 85.1813 90.4663 85.416C90.5196 85.64 90.5676 85.8693 90.6102 86.104C90.6529 86.3387 90.6903 86.5573 90.7223 86.76C90.7649 86.9627 90.8023 87.128 90.8343 87.256L90.3703 87.24C90.5303 86.6747 90.6529 86.2373 90.7383 85.928C90.8343 85.6187 90.9089 85.384 90.9623 85.224C91.0156 85.0533 91.0636 84.9093 91.1063 84.792L93.1223 79.736H94.6743L96.6263 84.792C96.7329 85.048 96.8236 85.304 96.8983 85.56C96.9836 85.8053 97.0583 86.056 97.1223 86.312C97.1863 86.5573 97.2556 86.8187 97.3303 87.096L96.9143 87.208C96.9676 86.92 97.0049 86.696 97.0263 86.536C97.0583 86.3653 97.0849 86.2267 97.1063 86.12C97.1276 86.0133 97.1489 85.912 97.1703 85.816C97.1916 85.7093 97.2236 85.576 97.2663 85.416C97.3196 85.256 97.3889 85.0373 97.4743 84.76L99.6023 77.8H101.458L97.8903 89H96.6903L93.7303 81.992L93.8743 82.056L91.0263 89H89.8583ZM105.822 89.16C105.128 89.16 104.494 88.968 103.918 88.584C103.352 88.2 102.899 87.6773 102.558 87.016C102.216 86.3547 102.046 85.608 102.046 84.776C102.046 83.9333 102.216 83.1867 102.558 82.536C102.91 81.8747 103.379 81.3573 103.966 80.984C104.563 80.6107 105.23 80.424 105.966 80.424C106.403 80.424 106.803 80.488 107.166 80.616C107.528 80.744 107.843 80.9253 108.11 81.16C108.387 81.384 108.611 81.6453 108.782 81.944C108.963 82.2427 109.075 82.5627 109.118 82.904L108.75 82.776V80.6H110.414V89H108.75V87L109.134 86.888C109.07 87.176 108.936 87.4587 108.734 87.736C108.542 88.0027 108.291 88.2427 107.982 88.456C107.683 88.6693 107.347 88.84 106.974 88.968C106.611 89.096 106.227 89.16 105.822 89.16ZM106.254 87.64C106.755 87.64 107.198 87.5173 107.582 87.272C107.966 87.0267 108.264 86.6907 108.478 86.264C108.702 85.8267 108.814 85.3307 108.814 84.776C108.814 84.232 108.702 83.7467 108.478 83.32C108.264 82.8933 107.966 82.5573 107.582 82.312C107.198 82.0667 106.755 81.944 106.254 81.944C105.763 81.944 105.326 82.0667 104.942 82.312C104.568 82.5573 104.27 82.8933 104.046 83.32C103.832 83.7467 103.726 84.232 103.726 84.776C103.726 85.3307 103.832 85.8267 104.046 86.264C104.27 86.6907 104.568 87.0267 104.942 87.272C105.326 87.5173 105.763 87.64 106.254 87.64ZM112.747 89V77.16H114.395V89H112.747ZM116.762 89V77.16H118.41V89H116.762ZM124.51 89.16C123.646 89.16 122.878 88.9787 122.206 88.616C121.544 88.2427 121.022 87.736 120.638 87.096C120.264 86.456 120.078 85.72 120.078 84.888C120.078 84.2267 120.184 83.624 120.398 83.08C120.611 82.536 120.904 82.0667 121.278 81.672C121.662 81.2667 122.115 80.9573 122.638 80.744C123.171 80.52 123.747 80.408 124.366 80.408C124.91 80.408 125.416 80.5147 125.886 80.728C126.355 80.9307 126.76 81.2133 127.102 81.576C127.454 81.9387 127.72 82.3707 127.902 82.872C128.094 83.3627 128.184 83.9013 128.174 84.488L128.158 85.192H121.294L120.926 83.88H126.734L126.494 84.152V83.768C126.462 83.416 126.344 83.1013 126.142 82.824C125.939 82.5467 125.683 82.328 125.374 82.168C125.064 82.008 124.728 81.928 124.366 81.928C123.79 81.928 123.304 82.04 122.91 82.264C122.515 82.4773 122.216 82.7973 122.014 83.224C121.811 83.64 121.71 84.1573 121.71 84.776C121.71 85.3627 121.832 85.8747 122.078 86.312C122.323 86.7387 122.67 87.0693 123.118 87.304C123.566 87.5387 124.083 87.656 124.67 87.656C125.086 87.656 125.47 87.5867 125.822 87.448C126.184 87.3093 126.574 87.0587 126.99 86.696L127.822 87.864C127.566 88.12 127.251 88.344 126.878 88.536C126.515 88.728 126.126 88.8827 125.71 89C125.304 89.1067 124.904 89.16 124.51 89.16ZM131.005 89V78.456H132.653V89H131.005ZM129.261 82.2V80.6H134.605V82.2H129.261ZM141.63 89V78.456H143.278V89H141.63ZM139.886 82.2V80.6H145.23V82.2H139.886ZM150.428 89.16C149.607 89.16 148.871 88.9733 148.22 88.6C147.58 88.216 147.073 87.6987 146.7 87.048C146.327 86.3867 146.14 85.6347 146.14 84.792C146.14 83.9493 146.327 83.2027 146.7 82.552C147.073 81.8907 147.58 81.3733 148.22 81C148.871 80.616 149.607 80.424 150.428 80.424C151.239 80.424 151.964 80.616 152.604 81C153.255 81.3733 153.767 81.8907 154.14 82.552C154.513 83.2027 154.7 83.9493 154.7 84.792C154.7 85.6347 154.513 86.3867 154.14 87.048C153.767 87.6987 153.255 88.216 152.604 88.6C151.964 88.9733 151.239 89.16 150.428 89.16ZM150.428 87.656C150.929 87.656 151.377 87.5333 151.772 87.288C152.167 87.032 152.476 86.6907 152.7 86.264C152.924 85.8267 153.031 85.336 153.02 84.792C153.031 84.2373 152.924 83.7467 152.7 83.32C152.476 82.8827 152.167 82.5413 151.772 82.296C151.377 82.0507 150.929 81.928 150.428 81.928C149.927 81.928 149.473 82.056 149.068 82.312C148.673 82.5573 148.364 82.8987 148.14 83.336C147.916 83.7627 147.809 84.248 147.82 84.792C147.809 85.336 147.916 85.8267 148.14 86.264C148.364 86.6907 148.673 87.032 149.068 87.288C149.473 87.5333 149.927 87.656 150.428 87.656ZM162.388 92.68L164.084 88.76L164.1 90.072L159.908 80.6H161.828L164.452 86.776C164.505 86.8827 164.569 87.048 164.644 87.272C164.719 87.4853 164.783 87.6987 164.836 87.912L164.42 88.008C164.505 87.784 164.585 87.56 164.66 87.336C164.745 87.112 164.825 86.888 164.9 86.664L167.092 80.6H169.044L165.588 89L164.164 92.68H162.388ZM173.897 89.16C173.075 89.16 172.339 88.9733 171.689 88.6C171.049 88.216 170.542 87.6987 170.169 87.048C169.795 86.3867 169.609 85.6347 169.609 84.792C169.609 83.9493 169.795 83.2027 170.169 82.552C170.542 81.8907 171.049 81.3733 171.689 81C172.339 80.616 173.075 80.424 173.897 80.424C174.707 80.424 175.433 80.616 176.073 81C176.723 81.3733 177.235 81.8907 177.609 82.552C177.982 83.2027 178.169 83.9493 178.169 84.792C178.169 85.6347 177.982 86.3867 177.609 87.048C177.235 87.6987 176.723 88.216 176.073 88.6C175.433 88.9733 174.707 89.16 173.897 89.16ZM173.897 87.656C174.398 87.656 174.846 87.5333 175.241 87.288C175.635 87.032 175.945 86.6907 176.169 86.264C176.393 85.8267 176.499 85.336 176.489 84.792C176.499 84.2373 176.393 83.7467 176.169 83.32C175.945 82.8827 175.635 82.5413 175.241 82.296C174.846 82.0507 174.398 81.928 173.897 81.928C173.395 81.928 172.942 82.056 172.537 82.312C172.142 82.5573 171.833 82.8987 171.609 83.336C171.385 83.7627 171.278 84.248 171.289 84.792C171.278 85.336 171.385 85.8267 171.609 86.264C171.833 86.6907 172.142 87.032 172.537 87.288C172.942 87.5333 173.395 87.656 173.897 87.656ZM182.909 89.16C182.311 89.16 181.789 89.0213 181.341 88.744C180.903 88.4667 180.562 88.0773 180.317 87.576C180.082 87.0747 179.965 86.4773 179.965 85.784V80.6H181.613V85.336C181.613 85.8267 181.687 86.2533 181.837 86.616C181.997 86.968 182.221 87.24 182.509 87.432C182.807 87.624 183.165 87.72 183.581 87.72C183.89 87.72 184.173 87.672 184.429 87.576C184.685 87.4693 184.903 87.3253 185.085 87.144C185.277 86.9627 185.426 86.744 185.533 86.488C185.639 86.232 185.693 85.9547 185.693 85.656V80.6H187.341V89H185.693V87.24L185.981 87.048C185.853 87.4427 185.634 87.8 185.325 88.12C185.026 88.44 184.669 88.696 184.253 88.888C183.837 89.0693 183.389 89.16 182.909 89.16ZM189.652 89V80.6H191.316V83.24L191.156 82.6C191.273 82.1947 191.471 81.8267 191.748 81.496C192.036 81.1653 192.361 80.904 192.724 80.712C193.097 80.52 193.481 80.424 193.876 80.424C194.057 80.424 194.228 80.44 194.388 80.472C194.559 80.504 194.692 80.5413 194.788 80.584L194.356 82.376C194.228 82.3227 194.084 82.28 193.924 82.248C193.775 82.2053 193.625 82.184 193.476 82.184C193.188 82.184 192.911 82.2427 192.644 82.36C192.388 82.4667 192.159 82.6213 191.956 82.824C191.764 83.016 191.609 83.2453 191.492 83.512C191.375 83.768 191.316 84.0507 191.316 84.36V89H189.652ZM201.63 89V78.456H203.278V89H201.63ZM199.886 82.2V80.6H205.23V82.2H199.886ZM210.428 89.16C209.607 89.16 208.871 88.9733 208.22 88.6C207.58 88.216 207.073 87.6987 206.7 87.048C206.327 86.3867 206.14 85.6347 206.14 84.792C206.14 83.9493 206.327 83.2027 206.7 82.552C207.073 81.8907 207.58 81.3733 208.22 81C208.871 80.616 209.607 80.424 210.428 80.424C211.239 80.424 211.964 80.616 212.604 81C213.255 81.3733 213.767 81.8907 214.14 82.552C214.513 83.2027 214.7 83.9493 214.7 84.792C214.7 85.6347 214.513 86.3867 214.14 87.048C213.767 87.6987 213.255 88.216 212.604 88.6C211.964 88.9733 211.239 89.16 210.428 89.16ZM210.428 87.656C210.929 87.656 211.377 87.5333 211.772 87.288C212.167 87.032 212.476 86.6907 212.7 86.264C212.924 85.8267 213.031 85.336 213.02 84.792C213.031 84.2373 212.924 83.7467 212.7 83.32C212.476 82.8827 212.167 82.5413 211.772 82.296C211.377 82.0507 210.929 81.928 210.428 81.928C209.927 81.928 209.473 82.056 209.068 82.312C208.673 82.5573 208.364 82.8987 208.14 83.336C207.916 83.7627 207.809 84.248 207.82 84.792C207.809 85.336 207.916 85.8267 208.14 86.264C208.364 86.6907 208.673 87.032 209.068 87.288C209.473 87.5333 209.927 87.656 210.428 87.656ZM220.272 89.16C219.45 89.16 218.714 88.9733 218.064 88.6C217.424 88.216 216.917 87.6987 216.544 87.048C216.17 86.3867 215.984 85.6347 215.984 84.792C215.984 83.9493 216.17 83.2027 216.544 82.552C216.917 81.8907 217.424 81.3733 218.064 81C218.714 80.616 219.45 80.424 220.272 80.424C221.082 80.424 221.808 80.616 222.448 81C223.098 81.3733 223.61 81.8907 223.984 82.552C224.357 83.2027 224.544 83.9493 224.544 84.792C224.544 85.6347 224.357 86.3867 223.984 87.048C223.61 87.6987 223.098 88.216 222.448 88.6C221.808 88.9733 221.082 89.16 220.272 89.16ZM220.272 87.656C220.773 87.656 221.221 87.5333 221.616 87.288C222.01 87.032 222.32 86.6907 222.544 86.264C222.768 85.8267 222.874 85.336 222.864 84.792C222.874 84.2373 222.768 83.7467 222.544 83.32C222.32 82.8827 222.01 82.5413 221.616 82.296C221.221 82.0507 220.773 81.928 220.272 81.928C219.77 81.928 219.317 82.056 218.912 82.312C218.517 82.5573 218.208 82.8987 217.984 83.336C217.76 83.7627 217.653 84.248 217.664 84.792C217.653 85.336 217.76 85.8267 217.984 86.264C218.208 86.6907 218.517 87.032 218.912 87.288C219.317 87.5333 219.77 87.656 220.272 87.656ZM226.372 89V77.16H228.02V89H226.372ZM234.771 89.16C234.408 89.16 234.046 89.1013 233.683 88.984C233.331 88.8667 233.006 88.712 232.707 88.52C232.419 88.3173 232.174 88.0987 231.971 87.864C231.779 87.6187 231.651 87.3733 231.587 87.128L232.003 86.904V88.952H230.355V77.16H232.003V82.52L231.747 82.376C231.8 82.1307 231.918 81.896 232.099 81.672C232.28 81.4373 232.51 81.2293 232.787 81.048C233.075 80.856 233.384 80.7067 233.715 80.6C234.046 80.4827 234.382 80.424 234.723 80.424C235.48 80.424 236.152 80.6107 236.739 80.984C237.326 81.3573 237.79 81.8747 238.131 82.536C238.472 83.1867 238.643 83.9333 238.643 84.776C238.643 85.6187 238.472 86.3707 238.131 87.032C237.8 87.6933 237.342 88.216 236.755 88.6C236.168 88.9733 235.507 89.16 234.771 89.16ZM234.499 87.656C234.99 87.656 235.427 87.5333 235.811 87.288C236.195 87.032 236.499 86.6907 236.723 86.264C236.947 85.8267 237.059 85.3307 237.059 84.776C237.059 84.232 236.947 83.7467 236.723 83.32C236.51 82.8827 236.211 82.5413 235.827 82.296C235.443 82.0507 235 81.928 234.499 81.928C233.998 81.928 233.555 82.0507 233.171 82.296C232.787 82.5413 232.483 82.8827 232.259 83.32C232.035 83.7467 231.923 84.232 231.923 84.776C231.923 85.3307 232.035 85.8267 232.259 86.264C232.483 86.6907 232.787 87.032 233.171 87.288C233.555 87.5333 233.998 87.656 234.499 87.656ZM243.665 89.16C242.972 89.16 242.337 88.968 241.761 88.584C241.196 88.2 240.743 87.6773 240.401 87.016C240.06 86.3547 239.889 85.608 239.889 84.776C239.889 83.9333 240.06 83.1867 240.401 82.536C240.753 81.8747 241.223 81.3573 241.809 80.984C242.407 80.6107 243.073 80.424 243.809 80.424C244.247 80.424 244.647 80.488 245.009 80.616C245.372 80.744 245.687 80.9253 245.953 81.16C246.231 81.384 246.455 81.6453 246.625 81.944C246.807 82.2427 246.919 82.5627 246.961 82.904L246.593 82.776V80.6H248.257V89H246.593V87L246.977 86.888C246.913 87.176 246.78 87.4587 246.577 87.736C246.385 88.0027 246.135 88.2427 245.825 88.456C245.527 88.6693 245.191 88.84 244.817 88.968C244.455 89.096 244.071 89.16 243.665 89.16ZM244.097 87.64C244.599 87.64 245.041 87.5173 245.425 87.272C245.809 87.0267 246.108 86.6907 246.321 86.264C246.545 85.8267 246.657 85.3307 246.657 84.776C246.657 84.232 246.545 83.7467 246.321 83.32C246.108 82.8933 245.809 82.5573 245.425 82.312C245.041 82.0667 244.599 81.944 244.097 81.944C243.607 81.944 243.169 82.0667 242.785 82.312C242.412 82.5573 242.113 82.8933 241.889 83.32C241.676 83.7467 241.569 84.232 241.569 84.776C241.569 85.3307 241.676 85.8267 241.889 86.264C242.113 86.6907 242.412 87.0267 242.785 87.272C243.169 87.5173 243.607 87.64 244.097 87.64ZM250.558 89V80.6H252.222V83.24L252.062 82.6C252.18 82.1947 252.377 81.8267 252.654 81.496C252.942 81.1653 253.268 80.904 253.63 80.712C254.004 80.52 254.388 80.424 254.782 80.424C254.964 80.424 255.134 80.44 255.294 80.472C255.465 80.504 255.598 80.5413 255.694 80.584L255.262 82.376C255.134 82.3227 254.99 82.28 254.83 82.248C254.681 82.2053 254.532 82.184 254.382 82.184C254.094 82.184 253.817 82.2427 253.55 82.36C253.294 82.4667 253.065 82.6213 252.862 82.824C252.67 83.016 252.516 83.2453 252.398 83.512C252.281 83.768 252.222 84.0507 252.222 84.36V89H250.558ZM262.408 89V79.656C262.408 79.176 262.514 78.7493 262.728 78.376C262.941 78.0027 263.234 77.7093 263.608 77.496C263.981 77.2827 264.413 77.176 264.904 77.176C265.245 77.176 265.565 77.24 265.864 77.368C266.162 77.496 266.402 77.6667 266.584 77.88L266.024 79.144C265.885 79.016 265.73 78.9147 265.56 78.84C265.4 78.7547 265.245 78.712 265.096 78.712C264.872 78.712 264.68 78.7493 264.52 78.824C264.37 78.888 264.258 78.9947 264.184 79.144C264.109 79.2827 264.072 79.4533 264.072 79.656V89H263.24C263.101 89 262.962 89 262.824 89C262.685 89 262.546 89 262.408 89ZM261.064 82.264V80.744H266.056V82.264H261.064ZM271.241 89.16C270.419 89.16 269.683 88.9733 269.033 88.6C268.393 88.216 267.886 87.6987 267.513 87.048C267.139 86.3867 266.953 85.6347 266.953 84.792C266.953 83.9493 267.139 83.2027 267.513 82.552C267.886 81.8907 268.393 81.3733 269.033 81C269.683 80.616 270.419 80.424 271.241 80.424C272.051 80.424 272.777 80.616 273.417 81C274.067 81.3733 274.579 81.8907 274.953 82.552C275.326 83.2027 275.513 83.9493 275.513 84.792C275.513 85.6347 275.326 86.3867 274.953 87.048C274.579 87.6987 274.067 88.216 273.417 88.6C272.777 88.9733 272.051 89.16 271.241 89.16ZM271.241 87.656C271.742 87.656 272.19 87.5333 272.585 87.288C272.979 87.032 273.289 86.6907 273.513 86.264C273.737 85.8267 273.843 85.336 273.833 84.792C273.843 84.2373 273.737 83.7467 273.513 83.32C273.289 82.8827 272.979 82.5413 272.585 82.296C272.19 82.0507 271.742 81.928 271.241 81.928C270.739 81.928 270.286 82.056 269.881 82.312C269.486 82.5573 269.177 82.8987 268.953 83.336C268.729 83.7627 268.622 84.248 268.633 84.792C268.622 85.336 268.729 85.8267 268.953 86.264C269.177 86.6907 269.486 87.032 269.881 87.288C270.286 87.5333 270.739 87.656 271.241 87.656ZM277.308 89V80.6H278.972V83.24L278.812 82.6C278.93 82.1947 279.127 81.8267 279.404 81.496C279.692 81.1653 280.018 80.904 280.38 80.712C280.754 80.52 281.138 80.424 281.532 80.424C281.714 80.424 281.884 80.44 282.044 80.472C282.215 80.504 282.348 80.5413 282.444 80.584L282.012 82.376C281.884 82.3227 281.74 82.28 281.58 82.248C281.431 82.2053 281.282 82.184 281.132 82.184C280.844 82.184 280.567 82.2427 280.3 82.36C280.044 82.4667 279.815 82.6213 279.612 82.824C279.42 83.016 279.266 83.2453 279.148 83.512C279.031 83.768 278.972 84.0507 278.972 84.36V89H277.308ZM29.072 113.16C28.208 113.16 27.44 112.979 26.768 112.616C26.1067 112.243 25.584 111.736 25.2 111.096C24.8267 110.456 24.64 109.72 24.64 108.888C24.64 108.227 24.7467 107.624 24.96 107.08C25.1733 106.536 25.4667 106.067 25.84 105.672C26.224 105.267 26.6773 104.957 27.2 104.744C27.7333 104.52 28.3093 104.408 28.928 104.408C29.472 104.408 29.9787 104.515 30.448 104.728C30.9173 104.931 31.3227 105.213 31.664 105.576C32.016 105.939 32.2827 106.371 32.464 106.872C32.656 107.363 32.7467 107.901 32.736 108.488L32.72 109.192H25.856L25.488 107.88H31.296L31.056 108.152V107.768C31.024 107.416 30.9067 107.101 30.704 106.824C30.5013 106.547 30.2453 106.328 29.936 106.168C29.6267 106.008 29.2907 105.928 28.928 105.928C28.352 105.928 27.8667 106.04 27.472 106.264C27.0773 106.477 26.7787 106.797 26.576 107.224C26.3733 107.64 26.272 108.157 26.272 108.776C26.272 109.363 26.3947 109.875 26.64 110.312C26.8853 110.739 27.232 111.069 27.68 111.304C28.128 111.539 28.6453 111.656 29.232 111.656C29.648 111.656 30.032 111.587 30.384 111.448C30.7467 111.309 31.136 111.059 31.552 110.696L32.384 111.864C32.128 112.12 31.8133 112.344 31.44 112.536C31.0773 112.728 30.688 112.883 30.272 113C29.8667 113.107 29.4667 113.16 29.072 113.16ZM37.759 113.16C37.0657 113.16 36.431 112.968 35.855 112.584C35.2897 112.2 34.8363 111.677 34.495 111.016C34.1537 110.355 33.983 109.608 33.983 108.776C33.983 107.933 34.1537 107.187 34.495 106.536C34.847 105.875 35.3163 105.357 35.903 104.984C36.5003 104.611 37.167 104.424 37.903 104.424C38.3403 104.424 38.7403 104.488 39.103 104.616C39.4657 104.744 39.7803 104.925 40.047 105.16C40.3243 105.384 40.5483 105.645 40.719 105.944C40.9003 106.243 41.0123 106.563 41.055 106.904L40.687 106.776V104.6H42.351V113H40.687V111L41.071 110.888C41.007 111.176 40.8737 111.459 40.671 111.736C40.479 112.003 40.2283 112.243 39.919 112.456C39.6203 112.669 39.2843 112.84 38.911 112.968C38.5483 113.096 38.1643 113.16 37.759 113.16ZM38.191 111.64C38.6923 111.64 39.135 111.517 39.519 111.272C39.903 111.027 40.2017 110.691 40.415 110.264C40.639 109.827 40.751 109.331 40.751 108.776C40.751 108.232 40.639 107.747 40.415 107.32C40.2017 106.893 39.903 106.557 39.519 106.312C39.135 106.067 38.6923 105.944 38.191 105.944C37.7003 105.944 37.263 106.067 36.879 106.312C36.5057 106.557 36.207 106.893 35.983 107.32C35.7697 107.747 35.663 108.232 35.663 108.776C35.663 109.331 35.7697 109.827 35.983 110.264C36.207 110.691 36.5057 111.027 36.879 111.272C37.263 111.517 37.7003 111.64 38.191 111.64ZM47.452 113.16C46.748 113.16 46.1133 113.037 45.548 112.792C44.9827 112.547 44.5133 112.184 44.14 111.704L45.26 110.744C45.58 111.117 45.9267 111.389 46.3 111.56C46.684 111.72 47.116 111.8 47.596 111.8C47.788 111.8 47.964 111.779 48.124 111.736C48.2947 111.683 48.4387 111.608 48.556 111.512C48.684 111.416 48.78 111.304 48.844 111.176C48.908 111.037 48.94 110.888 48.94 110.728C48.94 110.451 48.8387 110.227 48.636 110.056C48.5293 109.981 48.3587 109.901 48.124 109.816C47.9 109.72 47.6067 109.624 47.244 109.528C46.6253 109.368 46.1187 109.187 45.724 108.984C45.3293 108.781 45.0253 108.552 44.812 108.296C44.652 108.093 44.5347 107.875 44.46 107.64C44.3853 107.395 44.348 107.128 44.348 106.84C44.348 106.488 44.4227 106.168 44.572 105.88C44.732 105.581 44.9453 105.325 45.212 105.112C45.4893 104.888 45.8093 104.717 46.172 104.6C46.5453 104.483 46.94 104.424 47.356 104.424C47.7507 104.424 48.14 104.477 48.524 104.584C48.9187 104.691 49.2813 104.845 49.612 105.048C49.9427 105.251 50.22 105.491 50.444 105.768L49.5 106.808C49.2973 106.605 49.0733 106.429 48.828 106.28C48.5933 106.12 48.3533 105.997 48.108 105.912C47.8627 105.827 47.6387 105.784 47.436 105.784C47.212 105.784 47.0093 105.805 46.828 105.848C46.6467 105.891 46.492 105.955 46.364 106.04C46.2467 106.125 46.156 106.232 46.092 106.36C46.028 106.488 45.996 106.632 45.996 106.792C46.0067 106.931 46.0387 107.064 46.092 107.192C46.156 107.309 46.2413 107.411 46.348 107.496C46.4653 107.581 46.6413 107.672 46.876 107.768C47.1107 107.864 47.4093 107.955 47.772 108.04C48.3053 108.179 48.7427 108.333 49.084 108.504C49.436 108.664 49.7133 108.851 49.916 109.064C50.1293 109.267 50.2787 109.501 50.364 109.768C50.4493 110.035 50.492 110.333 50.492 110.664C50.492 111.144 50.3533 111.576 50.076 111.96C49.8093 112.333 49.4467 112.627 48.988 112.84C48.5293 113.053 48.0173 113.16 47.452 113.16ZM53.7163 116.68L55.4123 112.76L55.4283 114.072L51.2363 104.6H53.1562L55.7803 110.776C55.8336 110.883 55.8976 111.048 55.9723 111.272C56.0469 111.485 56.1109 111.699 56.1643 111.912L55.7483 112.008C55.8336 111.784 55.9136 111.56 55.9883 111.336C56.0736 111.112 56.1536 110.888 56.2283 110.664L58.4203 104.6H60.3723L56.9163 113L55.4923 116.68H53.7163ZM69.3215 113.16C68.6282 113.16 67.9935 112.968 67.4175 112.584C66.8522 112.2 66.3988 111.677 66.0575 111.016C65.7162 110.355 65.5455 109.608 65.5455 108.776C65.5455 107.933 65.7162 107.187 66.0575 106.536C66.4095 105.875 66.8788 105.357 67.4655 104.984C68.0628 104.611 68.7295 104.424 69.4655 104.424C69.9028 104.424 70.3028 104.488 70.6655 104.616C71.0282 104.744 71.3428 104.925 71.6095 105.16C71.8868 105.384 72.1108 105.645 72.2815 105.944C72.4628 106.243 72.5748 106.563 72.6175 106.904L72.2495 106.776V104.6H73.9135V113H72.2495V111L72.6335 110.888C72.5695 111.176 72.4362 111.459 72.2335 111.736C72.0415 112.003 71.7908 112.243 71.4815 112.456C71.1828 112.669 70.8468 112.84 70.4735 112.968C70.1108 113.096 69.7268 113.16 69.3215 113.16ZM69.7535 111.64C70.2548 111.64 70.6975 111.517 71.0815 111.272C71.4655 111.027 71.7642 110.691 71.9775 110.264C72.2015 109.827 72.3135 109.331 72.3135 108.776C72.3135 108.232 72.2015 107.747 71.9775 107.32C71.7642 106.893 71.4655 106.557 71.0815 106.312C70.6975 106.067 70.2548 105.944 69.7535 105.944C69.2628 105.944 68.8255 106.067 68.4415 106.312C68.0682 106.557 67.7695 106.893 67.5455 107.32C67.3322 107.747 67.2255 108.232 67.2255 108.776C67.2255 109.331 67.3322 109.827 67.5455 110.264C67.7695 110.691 68.0682 111.027 68.4415 111.272C68.8255 111.517 69.2628 111.64 69.7535 111.64ZM79.7825 113.16C79.0038 113.16 78.3052 112.968 77.6865 112.584C77.0785 112.2 76.5932 111.677 76.2305 111.016C75.8785 110.355 75.7025 109.613 75.7025 108.792C75.7025 107.971 75.8785 107.229 76.2305 106.568C76.5932 105.907 77.0785 105.384 77.6865 105C78.3052 104.616 79.0038 104.424 79.7825 104.424C80.5292 104.424 81.2065 104.579 81.8145 104.888C82.4332 105.187 82.9025 105.597 83.2225 106.12L82.3105 107.24C82.1398 106.995 81.9212 106.771 81.6545 106.568C81.3878 106.365 81.1052 106.205 80.8065 106.088C80.5078 105.971 80.2198 105.912 79.9425 105.912C79.4305 105.912 78.9718 106.04 78.5665 106.296C78.1718 106.541 77.8572 106.883 77.6225 107.32C77.3878 107.757 77.2705 108.248 77.2705 108.792C77.2705 109.336 77.3932 109.827 77.6385 110.264C77.8838 110.691 78.2092 111.032 78.6145 111.288C79.0198 111.544 79.4678 111.672 79.9585 111.672C80.2465 111.672 80.5238 111.624 80.7905 111.528C81.0678 111.432 81.3345 111.288 81.5905 111.096C81.8465 110.904 82.0865 110.669 82.3105 110.392L83.2225 111.512C82.8812 111.992 82.3905 112.387 81.7505 112.696C81.1212 113.005 80.4652 113.16 79.7825 113.16ZM88.345 113.16C87.5663 113.16 86.8677 112.968 86.249 112.584C85.641 112.2 85.1557 111.677 84.793 111.016C84.441 110.355 84.265 109.613 84.265 108.792C84.265 107.971 84.441 107.229 84.793 106.568C85.1557 105.907 85.641 105.384 86.249 105C86.8677 104.616 87.5663 104.424 88.345 104.424C89.0917 104.424 89.769 104.579 90.377 104.888C90.9957 105.187 91.465 105.597 91.785 106.12L90.873 107.24C90.7023 106.995 90.4837 106.771 90.217 106.568C89.9503 106.365 89.6677 106.205 89.369 106.088C89.0703 105.971 88.7823 105.912 88.505 105.912C87.993 105.912 87.5343 106.04 87.129 106.296C86.7343 106.541 86.4197 106.883 86.185 107.32C85.9503 107.757 85.833 108.248 85.833 108.792C85.833 109.336 85.9557 109.827 86.201 110.264C86.4463 110.691 86.7717 111.032 87.177 111.288C87.5823 111.544 88.0303 111.672 88.521 111.672C88.809 111.672 89.0863 111.624 89.353 111.528C89.6303 111.432 89.897 111.288 90.153 111.096C90.409 110.904 90.649 110.669 90.873 110.392L91.785 111.512C91.4437 111.992 90.953 112.387 90.313 112.696C89.6837 113.005 89.0277 113.16 88.345 113.16ZM97.2595 113.16C96.3955 113.16 95.6275 112.979 94.9555 112.616C94.2942 112.243 93.7715 111.736 93.3875 111.096C93.0142 110.456 92.8275 109.72 92.8275 108.888C92.8275 108.227 92.9342 107.624 93.1475 107.08C93.3608 106.536 93.6542 106.067 94.0275 105.672C94.4115 105.267 94.8648 104.957 95.3875 104.744C95.9208 104.52 96.4968 104.408 97.1155 104.408C97.6595 104.408 98.1662 104.515 98.6355 104.728C99.1048 104.931 99.5102 105.213 99.8515 105.576C100.204 105.939 100.47 106.371 100.652 106.872C100.844 107.363 100.934 107.901 100.924 108.488L100.908 109.192H94.0435L93.6755 107.88H99.4835L99.2435 108.152V107.768C99.2115 107.416 99.0942 107.101 98.8915 106.824C98.6888 106.547 98.4328 106.328 98.1235 106.168C97.8142 106.008 97.4782 105.928 97.1155 105.928C96.5395 105.928 96.0542 106.04 95.6595 106.264C95.2648 106.477 94.9662 106.797 94.7635 107.224C94.5608 107.64 94.4595 108.157 94.4595 108.776C94.4595 109.363 94.5822 109.875 94.8275 110.312C95.0728 110.739 95.4195 111.069 95.8675 111.304C96.3155 111.539 96.8328 111.656 97.4195 111.656C97.8355 111.656 98.2195 111.587 98.5715 111.448C98.9342 111.309 99.3235 111.059 99.7395 110.696L100.572 111.864C100.316 112.12 100.001 112.344 99.6275 112.536C99.2648 112.728 98.8755 112.883 98.4595 113C98.0542 113.107 97.6542 113.16 97.2595 113.16ZM105.515 113.16C104.811 113.16 104.176 113.037 103.611 112.792C103.045 112.547 102.576 112.184 102.203 111.704L103.323 110.744C103.643 111.117 103.989 111.389 104.363 111.56C104.747 111.72 105.179 111.8 105.659 111.8C105.851 111.8 106.027 111.779 106.187 111.736C106.357 111.683 106.501 111.608 106.619 111.512C106.747 111.416 106.843 111.304 106.907 111.176C106.971 111.037 107.003 110.888 107.003 110.728C107.003 110.451 106.901 110.227 106.699 110.056C106.592 109.981 106.421 109.901 106.187 109.816C105.963 109.72 105.669 109.624 105.307 109.528C104.688 109.368 104.181 109.187 103.787 108.984C103.392 108.781 103.088 108.552 102.875 108.296C102.715 108.093 102.597 107.875 102.523 107.64C102.448 107.395 102.411 107.128 102.411 106.84C102.411 106.488 102.485 106.168 102.635 105.88C102.795 105.581 103.008 105.325 103.275 105.112C103.552 104.888 103.872 104.717 104.235 104.6C104.608 104.483 105.003 104.424 105.419 104.424C105.813 104.424 106.203 104.477 106.587 104.584C106.981 104.691 107.344 104.845 107.675 105.048C108.005 105.251 108.283 105.491 108.507 105.768L107.563 106.808C107.36 106.605 107.136 106.429 106.891 106.28C106.656 106.12 106.416 105.997 106.171 105.912C105.925 105.827 105.701 105.784 105.499 105.784C105.275 105.784 105.072 105.805 104.891 105.848C104.709 105.891 104.555 105.955 104.427 106.04C104.309 106.125 104.219 106.232 104.155 106.36C104.091 106.488 104.059 106.632 104.059 106.792C104.069 106.931 104.101 107.064 104.155 107.192C104.219 107.309 104.304 107.411 104.411 107.496C104.528 107.581 104.704 107.672 104.939 107.768C105.173 107.864 105.472 107.955 105.835 108.04C106.368 108.179 106.805 108.333 107.147 108.504C107.499 108.664 107.776 108.851 107.979 109.064C108.192 109.267 108.341 109.501 108.427 109.768C108.512 110.035 108.555 110.333 108.555 110.664C108.555 111.144 108.416 111.576 108.139 111.96C107.872 112.333 107.509 112.627 107.051 112.84C106.592 113.053 106.08 113.16 105.515 113.16ZM113.171 113.16C112.467 113.16 111.832 113.037 111.267 112.792C110.701 112.547 110.232 112.184 109.859 111.704L110.979 110.744C111.299 111.117 111.645 111.389 112.019 111.56C112.403 111.72 112.835 111.8 113.315 111.8C113.507 111.8 113.683 111.779 113.843 111.736C114.013 111.683 114.157 111.608 114.275 111.512C114.403 111.416 114.499 111.304 114.563 111.176C114.627 111.037 114.659 110.888 114.659 110.728C114.659 110.451 114.557 110.227 114.355 110.056C114.248 109.981 114.077 109.901 113.843 109.816C113.619 109.72 113.325 109.624 112.963 109.528C112.344 109.368 111.837 109.187 111.443 108.984C111.048 108.781 110.744 108.552 110.531 108.296C110.371 108.093 110.253 107.875 110.179 107.64C110.104 107.395 110.067 107.128 110.067 106.84C110.067 106.488 110.141 106.168 110.291 105.88C110.451 105.581 110.664 105.325 110.931 105.112C111.208 104.888 111.528 104.717 111.891 104.6C112.264 104.483 112.659 104.424 113.075 104.424C113.469 104.424 113.859 104.477 114.243 104.584C114.637 104.691 115 104.845 115.331 105.048C115.661 105.251 115.939 105.491 116.163 105.768L115.219 106.808C115.016 106.605 114.792 106.429 114.547 106.28C114.312 106.12 114.072 105.997 113.827 105.912C113.581 105.827 113.357 105.784 113.155 105.784C112.931 105.784 112.728 105.805 112.547 105.848C112.365 105.891 112.211 105.955 112.083 106.04C111.965 106.125 111.875 106.232 111.811 106.36C111.747 106.488 111.715 106.632 111.715 106.792C111.725 106.931 111.757 107.064 111.811 107.192C111.875 107.309 111.96 107.411 112.067 107.496C112.184 107.581 112.36 107.672 112.595 107.768C112.829 107.864 113.128 107.955 113.491 108.04C114.024 108.179 114.461 108.333 114.803 108.504C115.155 108.664 115.432 108.851 115.635 109.064C115.848 109.267 115.997 109.501 116.083 109.768C116.168 110.035 116.211 110.333 116.211 110.664C116.211 111.144 116.072 111.576 115.795 111.96C115.528 112.333 115.165 112.627 114.707 112.84C114.248 113.053 113.736 113.16 113.171 113.16Z" fill="#000D3D"/>
<rect x="24" y="147" width="24" height="24" rx="6" fill="#F3F5F8"/>
<rect x="60" y="147" width="80" height="24" rx="6" fill="#F3F5F8"/>
<rect x="291" y="143" width="32" height="32" rx="16" fill="white"/>
<path d="M305.414 153.172L305.113 157.027C305.086 157.438 304.895 157.793 304.539 158.012C303.91 158.449 303.418 159.133 303.199 159.926L303.172 160.062H306.344V157.656C306.344 157.301 306.617 157 307 157C307.355 157 307.656 157.301 307.656 157.656V160.062H310.801L310.773 159.926C310.555 159.133 310.09 158.449 309.434 158.012C309.105 157.793 308.887 157.438 308.859 157.027L308.559 153.172C308.559 153.145 308.559 153.117 308.559 153.062H305.414C305.414 153.117 305.414 153.145 305.414 153.172ZM306.344 161.375H302.625C302.352 161.375 302.078 161.266 301.914 161.047C301.75 160.828 301.695 160.555 301.777 160.309L301.941 159.625C302.215 158.477 302.898 157.547 303.801 156.918L304.02 154.375L304.102 153.062H303.281C303.145 153.062 303.035 153.035 302.926 152.98C302.734 152.871 302.625 152.652 302.625 152.406C302.625 152.051 302.898 151.75 303.281 151.75H304.102H309.871H310.719C311.074 151.75 311.375 152.051 311.375 152.406C311.375 152.652 311.238 152.871 311.047 152.98C310.938 153.035 310.828 153.062 310.719 153.062H309.871L309.953 154.375L310.172 156.918C311.074 157.547 311.758 158.477 312.031 159.625L312.195 160.309C312.277 160.555 312.223 160.828 312.059 161.047C311.895 161.266 311.621 161.375 311.348 161.375H307.656V165.094C307.656 165.477 307.355 165.75 307 165.75C306.617 165.75 306.344 165.477 306.344 165.094V161.375Z" fill="#B9C5D4"/>
<rect x="24" y="193" width="24" height="24" rx="5.33333" fill="url(#paint0_linear_1653_8853)"/>
<path fill-rule="evenodd" clip-rule="evenodd" d="M37.0611 200.41H35.1504V202.308H37.0611V200.41ZM38.8125 200.41H40.6227V202.208H38.8125V200.41ZM40.4947 204.635C40.5776 204.758 40.6218 204.903 40.6218 205.051C40.6218 205.25 40.5423 205.44 40.4009 205.581C40.2594 205.721 40.0676 205.8 39.8676 205.8C39.7184 205.8 39.5725 205.756 39.4485 205.674C39.3245 205.591 39.2278 205.474 39.1707 205.338C39.1136 205.201 39.0987 205.05 39.1278 204.905C39.1569 204.76 39.2287 204.626 39.3342 204.521C39.4397 204.417 39.5741 204.345 39.7204 204.316C39.8667 204.288 40.0184 204.302 40.1562 204.359C40.294 204.416 40.4118 204.512 40.4947 204.635ZM40.4947 208.426C40.5776 208.549 40.6218 208.694 40.6218 208.842C40.6218 209.04 40.5423 209.231 40.4009 209.371C40.2594 209.512 40.0676 209.591 39.8676 209.591C39.7184 209.591 39.5725 209.547 39.4485 209.464C39.3245 209.382 39.2278 209.265 39.1707 209.128C39.1136 208.992 39.0987 208.841 39.1278 208.696C39.1569 208.55 39.2287 208.417 39.3342 208.312C39.4397 208.207 39.5741 208.136 39.7204 208.107C39.8667 208.078 40.0184 208.093 40.1562 208.15C40.294 208.206 40.4118 208.302 40.4947 208.426ZM36.733 208.426C36.8159 208.549 36.8601 208.694 36.8601 208.842C36.8601 209.04 36.7806 209.231 36.6392 209.371C36.4977 209.512 36.3059 209.591 36.1058 209.591C35.9566 209.591 35.8108 209.547 35.6868 209.464C35.5628 209.382 35.4661 209.265 35.409 209.128C35.3519 208.992 35.337 208.841 35.366 208.696C35.3952 208.55 35.467 208.417 35.5725 208.312C35.678 208.207 35.8124 208.136 35.9587 208.107C36.105 208.078 36.2567 208.093 36.3945 208.15C36.5323 208.206 36.6501 208.302 36.733 208.426ZM35.1992 204.152H37.0094V205.95H35.1992V204.152ZM31.3828 200.412H33.3941V202.409H31.3828V200.412ZM33.1871 207.793H31.377V209.591H33.1871V207.793ZM31.377 204.103H33.2877V206H31.377V204.103Z" fill="white"/>
<path d="M60.7203 211L65.0563 199.8H66.8163L71.1203 211H69.2803L66.7203 204.248C66.6883 204.173 66.6243 203.992 66.5283 203.704C66.443 203.416 66.3416 203.096 66.2243 202.744C66.107 202.392 66.0003 202.072 65.9043 201.784C65.8083 201.485 65.7443 201.293 65.7123 201.208L66.0803 201.192C66.0163 201.373 65.9363 201.603 65.8403 201.88C65.755 202.157 65.659 202.451 65.5523 202.76C65.4563 203.069 65.3603 203.363 65.2643 203.64C65.1683 203.907 65.0883 204.131 65.0243 204.312L62.4803 211H60.7203ZM62.6403 208.216L63.2803 206.552H68.3683L69.1043 208.216H62.6403ZM76.5474 211.16C75.9394 211.16 75.3741 211.08 74.8514 210.92C74.3394 210.76 73.8701 210.52 73.4434 210.2C73.0274 209.869 72.6541 209.464 72.3234 208.984L73.5074 207.624C74.0301 208.371 74.5314 208.888 75.0114 209.176C75.4914 209.464 76.0621 209.608 76.7234 209.608C77.1288 209.608 77.4968 209.544 77.8274 209.416C78.1581 209.288 78.4194 209.112 78.6114 208.888C78.8034 208.664 78.8994 208.408 78.8994 208.12C78.8994 207.928 78.8674 207.747 78.8034 207.576C78.7394 207.405 78.6381 207.251 78.4994 207.112C78.3714 206.973 78.2008 206.845 77.9874 206.728C77.7848 206.611 77.5448 206.509 77.2674 206.424C76.9901 206.328 76.6701 206.248 76.3074 206.184C75.7314 206.067 75.2301 205.912 74.8034 205.72C74.3768 205.528 74.0194 205.288 73.7314 205C73.4434 204.712 73.2301 204.387 73.0914 204.024C72.9528 203.651 72.8834 203.235 72.8834 202.776C72.8834 202.328 72.9794 201.912 73.1714 201.528C73.3741 201.144 73.6461 200.813 73.9874 200.536C74.3394 200.248 74.7501 200.029 75.2194 199.88C75.6888 199.72 76.1954 199.64 76.7394 199.64C77.3154 199.64 77.8434 199.715 78.3234 199.864C78.8034 200.013 79.2301 200.237 79.6034 200.536C79.9768 200.824 80.2861 201.181 80.5314 201.608L79.3154 202.808C79.1021 202.456 78.8621 202.163 78.5954 201.928C78.3288 201.683 78.0354 201.501 77.7154 201.384C77.3954 201.256 77.0541 201.192 76.6914 201.192C76.2754 201.192 75.9128 201.256 75.6034 201.384C75.2941 201.512 75.0488 201.693 74.8674 201.928C74.6968 202.152 74.6114 202.419 74.6114 202.728C74.6114 202.952 74.6541 203.16 74.7394 203.352C74.8248 203.533 74.9528 203.699 75.1234 203.848C75.3048 203.987 75.5448 204.115 75.8434 204.232C76.1421 204.339 76.4994 204.435 76.9154 204.52C77.5021 204.648 78.0248 204.813 78.4834 205.016C78.9421 205.208 79.3314 205.437 79.6514 205.704C79.9714 205.971 80.2114 206.269 80.3714 206.6C80.5421 206.931 80.6274 207.288 80.6274 207.672C80.6274 208.387 80.4621 209.005 80.1314 209.528C79.8008 210.051 79.3314 210.456 78.7234 210.744C78.1154 211.021 77.3901 211.16 76.5474 211.16ZM82.6598 211V209.4H84.4678V201.4H82.6598V199.8H88.0038V201.4H86.1958V209.4H88.0038V211H82.6598ZM97.5848 211L94.0168 199.8H95.8568L98.0168 206.808C98.0808 206.979 98.1395 207.181 98.1928 207.416C98.2461 207.64 98.2941 207.869 98.3368 208.104C98.3795 208.339 98.4168 208.557 98.4488 208.76C98.4915 208.963 98.5288 209.128 98.5608 209.256L98.0968 209.24C98.2568 208.675 98.3795 208.237 98.4648 207.928C98.5608 207.619 98.6355 207.384 98.6888 207.224C98.7421 207.053 98.7901 206.909 98.8328 206.792L100.849 201.736H102.401L104.353 206.792C104.459 207.048 104.55 207.304 104.625 207.56C104.71 207.805 104.785 208.056 104.849 208.312C104.913 208.557 104.982 208.819 105.057 209.096L104.641 209.208C104.694 208.92 104.731 208.696 104.753 208.536C104.785 208.365 104.811 208.227 104.833 208.12C104.854 208.013 104.875 207.912 104.897 207.816C104.918 207.709 104.95 207.576 104.993 207.416C105.046 207.256 105.115 207.037 105.201 206.76L107.329 199.8H109.185L105.617 211H104.417L101.457 203.992L101.601 204.056L98.7528 211H97.5848ZM113.548 211.16C112.855 211.16 112.22 210.968 111.644 210.584C111.079 210.2 110.625 209.677 110.284 209.016C109.943 208.355 109.772 207.608 109.772 206.776C109.772 205.933 109.943 205.187 110.284 204.536C110.636 203.875 111.105 203.357 111.692 202.984C112.289 202.611 112.956 202.424 113.692 202.424C114.129 202.424 114.529 202.488 114.892 202.616C115.255 202.744 115.569 202.925 115.836 203.16C116.113 203.384 116.337 203.645 116.508 203.944C116.689 204.243 116.801 204.563 116.844 204.904L116.476 204.776V202.6H118.14V211H116.476V209L116.86 208.888C116.796 209.176 116.663 209.459 116.46 209.736C116.268 210.003 116.017 210.243 115.708 210.456C115.409 210.669 115.073 210.84 114.7 210.968C114.337 211.096 113.953 211.16 113.548 211.16ZM113.98 209.64C114.481 209.64 114.924 209.517 115.308 209.272C115.692 209.027 115.991 208.691 116.204 208.264C116.428 207.827 116.54 207.331 116.54 206.776C116.54 206.232 116.428 205.747 116.204 205.32C115.991 204.893 115.692 204.557 115.308 204.312C114.924 204.067 114.481 203.944 113.98 203.944C113.489 203.944 113.052 204.067 112.668 204.312C112.295 204.557 111.996 204.893 111.772 205.32C111.559 205.747 111.452 206.232 111.452 206.776C111.452 207.331 111.559 207.827 111.772 208.264C111.996 208.691 112.295 209.027 112.668 209.272C113.052 209.517 113.489 209.64 113.98 209.64ZM120.473 211V199.16H122.121V211H120.473ZM124.489 211V199.16H126.137V211H124.489ZM132.236 211.16C131.372 211.16 130.604 210.979 129.932 210.616C129.271 210.243 128.748 209.736 128.364 209.096C127.991 208.456 127.804 207.72 127.804 206.888C127.804 206.227 127.911 205.624 128.124 205.08C128.337 204.536 128.631 204.067 129.004 203.672C129.388 203.267 129.841 202.957 130.364 202.744C130.897 202.52 131.473 202.408 132.092 202.408C132.636 202.408 133.143 202.515 133.612 202.728C134.081 202.931 134.487 203.213 134.828 203.576C135.18 203.939 135.447 204.371 135.628 204.872C135.82 205.363 135.911 205.901 135.9 206.488L135.884 207.192H129.02L128.652 205.88H134.46L134.22 206.152V205.768C134.188 205.416 134.071 205.101 133.868 204.824C133.665 204.547 133.409 204.328 133.1 204.168C132.791 204.008 132.455 203.928 132.092 203.928C131.516 203.928 131.031 204.04 130.636 204.264C130.241 204.477 129.943 204.797 129.74 205.224C129.537 205.64 129.436 206.157 129.436 206.776C129.436 207.363 129.559 207.875 129.804 208.312C130.049 208.739 130.396 209.069 130.844 209.304C131.292 209.539 131.809 209.656 132.396 209.656C132.812 209.656 133.196 209.587 133.548 209.448C133.911 209.309 134.3 209.059 134.716 208.696L135.548 209.864C135.292 210.12 134.977 210.344 134.604 210.536C134.241 210.728 133.852 210.883 133.436 211C133.031 211.107 132.631 211.16 132.236 211.16ZM138.731 211V200.456H140.379V211H138.731ZM136.987 204.2V202.6H142.331V204.2H136.987Z" fill="#000D3D"/>
<g filter="url(#filter0_d_1653_8853)">
<rect x="291" y="189" width="32" height="32" rx="16" fill="#5F38FB" shape-rendering="crispEdges"/>
<path d="M303.25 200.25C303.25 199.852 303.578 199.5 304 199.5H310C310.398 199.5 310.75 199.852 310.75 200.25C310.75 200.672 310.398 201 310 201H309.297L309.555 204.492C310.422 204.961 311.102 205.734 311.43 206.695L311.453 206.766C311.523 207 311.5 207.258 311.359 207.445C311.219 207.633 310.984 207.75 310.75 207.75H303.25C302.992 207.75 302.781 207.656 302.641 207.445C302.477 207.258 302.453 207 302.523 206.766L302.547 206.695C302.875 205.734 303.555 204.961 304.422 204.492L304.68 201H304C303.578 201 303.25 200.672 303.25 200.25ZM306.25 208.5H307.75V210.75C307.75 211.172 307.398 211.5 307 211.5C306.578 211.5 306.25 211.172 306.25 210.75V208.5Z" fill="white"/>
</g>
<rect x="24" y="239" width="24" height="24" rx="6" fill="#F3F5F8"/>
<rect x="60" y="239" width="80" height="24" rx="6" fill="#F3F5F8"/>
<rect x="291" y="235" width="32" height="32" rx="16" fill="white"/>
<path d="M305.414 245.172L305.113 249.027C305.086 249.438 304.895 249.793 304.539 250.012C303.91 250.449 303.418 251.133 303.199 251.926L303.172 252.062H306.344V249.656C306.344 249.301 306.617 249 307 249C307.355 249 307.656 249.301 307.656 249.656V252.062H310.801L310.773 251.926C310.555 251.133 310.09 250.449 309.434 250.012C309.105 249.793 308.887 249.438 308.859 249.027L308.559 245.172C308.559 245.145 308.559 245.117 308.559 245.062H305.414C305.414 245.117 305.414 245.145 305.414 245.172ZM306.344 253.375H302.625C302.352 253.375 302.078 253.266 301.914 253.047C301.75 252.828 301.695 252.555 301.777 252.309L301.941 251.625C302.215 250.477 302.898 249.547 303.801 248.918L304.02 246.375L304.102 245.062H303.281C303.145 245.062 303.035 245.035 302.926 244.98C302.734 244.871 302.625 244.652 302.625 244.406C302.625 244.051 302.898 243.75 303.281 243.75H304.102H309.871H310.719C311.074 243.75 311.375 244.051 311.375 244.406C311.375 244.652 311.238 244.871 311.047 244.98C310.938 245.035 310.828 245.062 310.719 245.062H309.871L309.953 246.375L310.172 248.918C311.074 249.547 311.758 250.477 312.031 251.625L312.195 252.309C312.277 252.555 312.223 252.828 312.059 253.047C311.895 253.266 311.621 253.375 311.348 253.375H307.656V257.094C307.656 257.477 307.355 257.75 307 257.75C306.617 257.75 306.344 257.477 306.344 257.094V253.375Z" fill="#B9C5D4"/>
<rect x="24" width="48" height="48" rx="12" fill="#E8ECF1"/>
<path d="M44.8769 32.4998H41C40.5846 32.4998 40.2308 32.3537 39.9384 32.0614C39.6461 31.7691 39.5 31.4152 39.5 30.9999V27.1229C40.1846 27.0396 40.7724 26.755 41.2634 26.2691C41.7545 25.7832 42 25.1935 42 24.4999C42 23.8063 41.7545 23.2165 41.2634 22.7306C40.7724 22.2448 40.1846 21.9601 39.5 21.8768V17.9999C39.5 17.5845 39.6461 17.2307 39.9384 16.9383C40.2308 16.646 40.5846 16.4999 41 16.4999H45C45.0897 15.864 45.3682 15.3397 45.8355 14.9268C46.3029 14.514 46.8577 14.3076 47.5 14.3076C48.1423 14.3076 48.6971 14.514 49.1644 14.9268C49.6317 15.3397 49.9102 15.864 50 16.4999H54C54.4153 16.4999 54.7692 16.646 55.0615 16.9383C55.3538 17.2307 55.5 17.5845 55.5 17.9999V21.9999C56.1358 22.0896 56.6602 22.3681 57.073 22.8354C57.4858 23.3028 57.6922 23.8576 57.6922 24.4999C57.6922 25.1422 57.4858 25.697 57.073 26.1643C56.6602 26.6316 56.1358 26.9101 55.5 26.9999V30.9999C55.5 31.4152 55.3538 31.7691 55.0615 32.0614C54.7692 32.3537 54.4153 32.4998 54 32.4998H50.123C50.0333 31.7819 49.7403 31.1857 49.2442 30.7114C48.748 30.237 48.1666 29.9999 47.5 29.9999C46.8333 29.9999 46.2519 30.237 45.7557 30.7114C45.2596 31.1857 44.9667 31.7819 44.8769 32.4998ZM41 30.9999H43.7116C44.0539 30.1178 44.5945 29.4807 45.3336 29.0884C46.0727 28.6961 46.7949 28.4999 47.5 28.4999C48.2051 28.4999 48.9272 28.6961 49.6663 29.0884C50.4054 29.4807 50.9461 30.1178 51.2884 30.9999H54V25.5576H55.2307C55.5371 25.5191 55.774 25.3954 55.9413 25.1864C56.1086 24.9775 56.1922 24.7486 56.1922 24.4999C56.1922 24.2511 56.1086 24.0223 55.9413 23.8133C55.774 23.6043 55.5371 23.4806 55.2307 23.4421H54V17.9999H48.5577V16.7691C48.5192 16.4627 48.3955 16.2259 48.1866 16.0585C47.9776 15.8912 47.7487 15.8076 47.5 15.8076C47.2512 15.8076 47.0224 15.8912 46.8134 16.0585C46.6044 16.2259 46.4807 16.4627 46.4423 16.7691V17.9999H41V20.7384C41.7589 21.0525 42.3653 21.5515 42.8192 22.2355C43.273 22.9194 43.4999 23.6742 43.4999 24.4999C43.4999 25.3152 43.273 26.0649 42.8192 26.7489C42.3653 27.4329 41.7589 27.937 41 28.2614V30.9999Z" fill="#000D3D"/>
<defs>
<filter id="filter0_d_1653_8853" x="279" y="181" width="56" height="56" filterUnits="userSpaceOnUse" color-interpolation-filters="sRGB">
<feFlood flood-opacity="0" result="BackgroundImageFix"/>
<feColorMatrix in="SourceAlpha" type="matrix" values="0 0 0 0 0 0 0 0 0 0 0 0 0 0 0 0 0 0 127 0" result="hardAlpha"/>
<feOffset dy="4"/>
<feGaussianBlur stdDeviation="6"/>
<feComposite in2="hardAlpha" operator="out"/>
<feColorMatrix type="matrix" values="0 0 0 0 0 0 0 0 0 0 0 0 0 0 0 0 0 0 0.22 0"/>
<feBlend mode="normal" in2="BackgroundImageFix" result="effect1_dropShadow_1653_8853"/>
<feBlend mode="normal" in="SourceGraphic" in2="effect1_dropShadow_1653_8853" result="shape"/>
</filter>
<linearGradient id="paint0_linear_1653_8853" x1="19.8651" y1="220.436" x2="64.8125" y2="177.974" gradientUnits="userSpaceOnUse">
<stop offset="0.285971" stop-color="#010E3E"/>
<stop offset="0.959109" stop-color="#5F38FB"/>
</linearGradient>
</defs>
</svg>
