<?xml version="1.0" encoding="utf-8"?>
<!DOCTYPE svg PUBLIC "-//W3C//DTD SVG 1.1//EN" "http://www.w3.org/Graphics/SVG/1.1/DTD/svg11.dtd">
<svg version="1.1" xmlns="http://www.w3.org/2000/svg" xmlns:xlink="http://www.w3.org/1999/xlink" x="0px" y="0px" viewBox="0 0 256 256" enable-background="new 0 0 256 256" xml:space="preserve">
<metadata> Svg Vector Icons : http://www.onlinewebfonts.com/icon </metadata>
<g><g><path fill="#000000" d="M237.3,39.5l-20.9-20.9c-5.8-5.8-13.3-8.6-20.9-8.6s-15.1,2.9-20.9,8.6L48.1,145.3c-5.8,5.8-23.4,28.1-23.4,35.6L10,246l65.1-14.7c0,0,29.8-17.6,35.6-23.4L237.4,81.2C248.9,69.7,248.9,51,237.3,39.5z M29.6,226.4l9.6-42.3c0.1-0.6,0.2-1.2,0.3-1.8c0-0.1,0.1-0.2,0.1-0.3l33.4,33.4c-1.1,0.7-2.2,1.3-3.3,2L29.6,226.4z M100.3,197.4c-1.7,1.6-7.4,5.5-14.5,10l-38.2-38.2c3.9-5.4,8.3-10.8,11-13.5l95.4-95.4l41.7,41.7L100.3,197.4z M226.9,70.8l-20.9,20.9l-41.7-41.7l20.9-20.9c2.8-2.8,6.5-4.3,10.4-4.3c4,0,7.7,1.5,10.4,4.3l20.9,20.9c2.8,2.8,4.3,6.5,4.3,10.4C231.2,64.3,229.7,68,226.9,70.8z"/></g></g>
</svg>