<svg width="14" height="17" viewBox="0 0 14 17" fill="none" xmlns="http://www.w3.org/2000/svg">
<path d="M12 10.8104C12.25 10.8104 12.5 10.5916 12.5 10.3104V3.93536L10.375 1.81036H6C5.71875 1.81036 5.5 2.06036 5.5 2.31036V10.3104C5.5 10.5916 5.71875 10.8104 6 10.8104H12ZM6 12.3104C4.875 12.3104 4 11.4354 4 10.3104V2.31036C4 1.21661 4.875 0.310364 6 0.310364H10.375C10.75 0.310364 11.1562 0.497864 11.4375 0.779114L13.5312 2.87286C13.8125 3.15411 14 3.56036 14 3.93536V10.3104C14 11.4354 13.0938 12.3104 12 12.3104H6ZM2 4.31036H3V5.81036H2C1.71875 5.81036 1.5 6.06036 1.5 6.31036V14.3104C1.5 14.5916 1.71875 14.8104 2 14.8104H8C8.25 14.8104 8.5 14.5916 8.5 14.3104V13.3104H10V14.3104C10 15.4354 9.09375 16.3104 8 16.3104H2C0.875 16.3104 0 15.4354 0 14.3104V6.31036C0 5.21661 0.875 4.31036 2 4.31036Z" fill="white"/>
</svg>
