<svg width="298" height="50" viewBox="0 0 298 50" fill="none" xmlns="http://www.w3.org/2000/svg">
<rect x="0.5" width="143" height="50" rx="10" fill="#434242"/>
<g filter="url(#filter0_i_1117_7523)">
<path d="M3.5 10C3.5 6.13401 6.63401 3 10.5 3H133.5C137.366 3 140.5 6.13401 140.5 10V40C140.5 43.866 137.366 47 133.5 47H10.5C6.63401 47 3.5 43.866 3.5 40V10Z" fill="#434242"/>
</g>
<path d="M3.75 10C3.75 6.27208 6.77208 3.25 10.5 3.25H133.5C137.228 3.25 140.25 6.27208 140.25 10V40C140.25 43.7279 137.228 46.75 133.5 46.75H10.5C6.77208 46.75 3.75 43.7279 3.75 40V10Z" stroke="black" stroke-width="0.5"/>
<g filter="url(#filter1_dd_1117_7523)">
<circle cx="25.5" cy="25" r="13" fill="#282828"/>
</g>
<rect x="46" y="8" width="66" height="34" rx="1" fill="#282828"/>
<path d="M62.3281 26.2363V29H61.3418V21.4219H63.2266C64.0013 21.4219 64.5661 21.5098 64.9209 21.6855C65.2757 21.8581 65.5475 22.112 65.7363 22.4473C65.9251 22.7826 66.0195 23.1569 66.0195 23.5703C66.0195 24.0553 65.8926 24.5078 65.6387 24.9277C65.3848 25.3477 65.0299 25.6715 64.5742 25.8994C64.1217 26.124 63.5065 26.2363 62.7285 26.2363H62.3281ZM62.3281 25.4795H62.7529C63.3617 25.4795 63.8141 25.4014 64.1104 25.2451C64.4066 25.0856 64.6344 24.8577 64.7939 24.5615C64.9535 24.2653 65.0332 23.9447 65.0332 23.5996C65.0332 23.1634 64.89 22.8184 64.6035 22.5645C64.3203 22.3105 63.7588 22.1836 62.9189 22.1836H62.3281V25.4795ZM70.8291 27.7744C70.5524 28.2301 70.2188 28.5736 69.8281 28.8047C69.4408 29.0358 69.0843 29.1514 68.7588 29.1514C68.3031 29.1514 67.8929 28.9544 67.5283 28.5605C67.167 28.1667 66.9863 27.5693 66.9863 26.7686C66.9863 26.137 67.1068 25.5739 67.3477 25.0791C67.5885 24.5811 67.9108 24.1888 68.3145 23.9023C68.7181 23.6126 69.2178 23.4678 69.8135 23.4678C69.986 23.4678 70.2464 23.4857 70.5947 23.5215C70.6468 23.528 70.7249 23.5361 70.8291 23.5459H71.7422V27.3984C71.7422 28.056 71.8105 28.5898 71.9473 29H71C70.9284 28.7005 70.8714 28.292 70.8291 27.7744ZM70.8291 26.6953V24.3564C70.5068 24.2718 70.2074 24.2295 69.9307 24.2295C69.3708 24.2295 68.9036 24.446 68.5293 24.8789C68.1582 25.3118 67.9727 25.901 67.9727 26.6465C67.9727 27.1868 68.0736 27.5954 68.2754 27.8721C68.4805 28.1455 68.7132 28.2822 68.9736 28.2822C69.2568 28.2822 69.5693 28.139 69.9111 27.8525C70.2529 27.5661 70.5589 27.1803 70.8291 26.6953ZM74.7793 29V24.3027H73.2656V23.5459H75.6875V28.2432H77.2061V29H74.7793ZM74.6279 21.5781C74.6279 21.373 74.6979 21.2201 74.8379 21.1191C74.9779 21.0182 75.1097 20.9678 75.2334 20.9678C75.3604 20.9678 75.4938 21.0182 75.6338 21.1191C75.7738 21.2201 75.8438 21.373 75.8438 21.5781C75.8438 21.7799 75.7738 21.9313 75.6338 22.0322C75.4938 22.1331 75.3604 22.1836 75.2334 22.1836C75.1097 22.1836 74.9779 22.1331 74.8379 22.0322C74.6979 21.9313 74.6279 21.7799 74.6279 21.5781ZM79.7207 29V23.5459H80.6289V24.7373C80.9121 24.2881 81.236 23.9528 81.6006 23.7314C81.9684 23.5068 82.377 23.3945 82.8262 23.3945C83.1549 23.3945 83.4837 23.445 83.8125 23.5459V25.5137H82.9385V24.2686C82.7855 24.2425 82.665 24.2295 82.5771 24.2295C82.2386 24.2295 81.9066 24.363 81.5811 24.6299C81.2555 24.8968 80.9382 25.2972 80.6289 25.8311V29H79.7207ZM89.7988 28.6387C89.0729 28.9837 88.3861 29.1562 87.7383 29.1562C87.2467 29.1562 86.8073 29.0342 86.4199 28.79C86.0326 28.5459 85.7217 28.1976 85.4873 27.7451C85.2562 27.2894 85.1406 26.8027 85.1406 26.2852C85.1406 25.7871 85.2513 25.3086 85.4727 24.8496C85.694 24.3906 86.0033 24.0342 86.4004 23.7803C86.7975 23.5231 87.2402 23.3945 87.7285 23.3945C88.3763 23.3945 88.8955 23.6257 89.2861 24.0879C89.68 24.5501 89.877 25.263 89.877 26.2266V26.4219H86.1172C86.1172 26.7995 86.1953 27.1445 86.3516 27.457C86.5111 27.7695 86.7194 28.0039 86.9766 28.1602C87.2337 28.3164 87.5267 28.3945 87.8555 28.3945C88.4414 28.3945 89.0892 28.1992 89.7988 27.8086V28.6387ZM86.1709 25.7432H88.8906V25.6113C88.8906 25.1654 88.7816 24.8105 88.5635 24.5469C88.3454 24.2832 88.054 24.1514 87.6895 24.1514C87.3216 24.1514 87.0026 24.2865 86.7324 24.5566C86.4655 24.8236 86.2783 25.2191 86.1709 25.7432ZM94.9111 27.7744C94.6344 28.2301 94.3008 28.5736 93.9102 28.8047C93.5228 29.0358 93.1663 29.1514 92.8408 29.1514C92.3851 29.1514 91.9749 28.9544 91.6104 28.5605C91.249 28.1667 91.0684 27.5693 91.0684 26.7686C91.0684 26.137 91.1888 25.5739 91.4297 25.0791C91.6706 24.5811 91.9928 24.1888 92.3965 23.9023C92.8001 23.6126 93.2998 23.4678 93.8955 23.4678C94.068 23.4678 94.3285 23.4857 94.6768 23.5215C94.7288 23.528 94.807 23.5361 94.9111 23.5459V21.1191H95.8242V29H94.9111V27.7744ZM94.9111 26.6953V24.3564C94.5889 24.2718 94.2894 24.2295 94.0127 24.2295C93.4528 24.2295 92.9857 24.446 92.6113 24.8789C92.2402 25.3118 92.0547 25.901 92.0547 26.6465C92.0547 27.1868 92.1556 27.5954 92.3574 27.8721C92.5625 28.1455 92.7952 28.2822 93.0557 28.2822C93.3389 28.2822 93.6514 28.139 93.9932 27.8525C94.335 27.5661 94.641 27.1803 94.9111 26.6953Z" fill="white"/>
<g filter="url(#filter2_i_1117_7523)">
<path d="M120.5 25C120.5 11.1929 131.693 0 145.5 0H295.5C296.605 0 297.5 0.895431 297.5 2V48C297.5 49.1046 296.605 50 295.5 50H145.5C131.693 50 120.5 38.8071 120.5 25Z" fill="#DCD9DC"/>
</g>
<g clip-path="url(#clip0_1117_7523)">
<path d="M236.657 17.0905V15.9573H228.87V21.0681H230.005V17.0905H236.657ZM236.657 33.957V32.8238H230.005V28.846H228.87V33.957H236.657ZM240.672 25.1903V27.8236H238.892C238.025 27.8236 237.713 27.5347 237.713 26.7457V26.2792C237.713 25.4681 238.014 25.1903 238.892 25.1903H240.672ZM237.847 24.7237C237.035 24.9348 236.468 25.6905 236.468 26.5903C236.468 27.1569 236.69 27.6681 237.113 28.0793C237.647 28.5905 238.359 28.846 239.282 28.846H241.785V21.0683H240.672V24.1682H239.004C238.147 24.1682 237.802 23.8127 237.802 22.9236V21.0681H236.668V22.7459C236.668 23.9681 236.957 24.4347 237.847 24.568V24.7237ZM247.213 24.4683H243.786V25.4904H247.213V27.8238H243.453V28.846H248.347V21.0683H243.286V22.0905H247.213V24.4683ZM250.939 24.0571V23.5238C250.939 22.4016 251.351 22.0348 252.385 22.0348H252.63C253.664 22.0348 254.165 22.3683 254.165 23.9127V26.0016C254.165 27.5571 253.642 27.8795 252.608 27.8795H252.385C251.373 27.8795 251.05 27.5017 251.039 26.4572H249.816C249.927 27.9906 250.95 28.957 252.485 28.957C253.231 28.957 253.854 28.7236 254.321 28.2794C255.021 27.6237 255.411 26.5126 255.411 24.9572C255.411 23.4571 255.077 22.346 254.387 21.6573C253.92 21.2017 253.275 20.9573 252.641 20.9573C251.974 20.9573 251.362 21.2241 251.05 21.8017H250.895V21.0683H249.872V25.0792H252.886V24.0571H250.939ZM260.75 27.8238H259.537C258.391 27.8238 257.768 27.535 257.768 25.9793V23.935C257.768 22.3796 258.391 22.0905 259.537 22.0905H260.75V27.8238ZM259.437 21.0681C257.312 21.0681 256.523 22.6792 256.523 24.9569C256.523 27.268 257.368 28.8457 259.46 28.8457H261.862V21.0681H259.437ZM267.235 24.4683H263.809V25.4904H267.235V27.8238H263.475V28.846H268.369V21.0683H263.308V22.0905H267.235V24.4683ZM273.797 28.846H274.932V21.0683H269.815V22.0905H273.797V28.846ZM282.729 21.0681V15.957H274.943V17.0905H281.595V21.0681H282.729ZM282.729 33.957V28.846H281.595V32.8238H274.943V33.957H282.729Z" fill="#BCBABC"/>
</g>
<g filter="url(#filter3_dd_1117_7523)">
<circle cx="145.5" cy="25" r="13" fill="#DCD9DC"/>
</g>
<defs>
<filter id="filter0_i_1117_7523" x="3.5" y="3" width="137" height="44" filterUnits="userSpaceOnUse" color-interpolation-filters="sRGB">
<feFlood flood-opacity="0" result="BackgroundImageFix"/>
<feBlend mode="normal" in="SourceGraphic" in2="BackgroundImageFix" result="shape"/>
<feColorMatrix in="SourceAlpha" type="matrix" values="0 0 0 0 0 0 0 0 0 0 0 0 0 0 0 0 0 0 127 0" result="hardAlpha"/>
<feOffset dx="1.5"/>
<feComposite in2="hardAlpha" operator="arithmetic" k2="-1" k3="1"/>
<feColorMatrix type="matrix" values="0 0 0 0 1 0 0 0 0 1 0 0 0 0 1 0 0 0 0.09 0"/>
<feBlend mode="normal" in2="shape" result="effect1_innerShadow_1117_7523"/>
</filter>
<filter id="filter1_dd_1117_7523" x="8.5" y="8" width="34" height="34" filterUnits="userSpaceOnUse" color-interpolation-filters="sRGB">
<feFlood flood-opacity="0" result="BackgroundImageFix"/>
<feColorMatrix in="SourceAlpha" type="matrix" values="0 0 0 0 0 0 0 0 0 0 0 0 0 0 0 0 0 0 127 0" result="hardAlpha"/>
<feMorphology radius="2" operator="dilate" in="SourceAlpha" result="effect1_dropShadow_1117_7523"/>
<feOffset/>
<feGaussianBlur stdDeviation="1"/>
<feComposite in2="hardAlpha" operator="out"/>
<feColorMatrix type="matrix" values="0 0 0 0 0 0 0 0 0 0 0 0 0 0 0 0 0 0 0.14 0"/>
<feBlend mode="normal" in2="BackgroundImageFix" result="effect1_dropShadow_1117_7523"/>
<feColorMatrix in="SourceAlpha" type="matrix" values="0 0 0 0 0 0 0 0 0 0 0 0 0 0 0 0 0 0 127 0" result="hardAlpha"/>
<feMorphology radius="0.5" operator="dilate" in="SourceAlpha" result="effect2_dropShadow_1117_7523"/>
<feOffset/>
<feComposite in2="hardAlpha" operator="out"/>
<feColorMatrix type="matrix" values="0 0 0 0 0 0 0 0 0 0 0 0 0 0 0 0 0 0 1 0"/>
<feBlend mode="normal" in2="effect1_dropShadow_1117_7523" result="effect2_dropShadow_1117_7523"/>
<feBlend mode="normal" in="SourceGraphic" in2="effect2_dropShadow_1117_7523" result="shape"/>
</filter>
<filter id="filter2_i_1117_7523" x="118.5" y="0" width="179" height="50" filterUnits="userSpaceOnUse" color-interpolation-filters="sRGB">
<feFlood flood-opacity="0" result="BackgroundImageFix"/>
<feBlend mode="normal" in="SourceGraphic" in2="BackgroundImageFix" result="shape"/>
<feColorMatrix in="SourceAlpha" type="matrix" values="0 0 0 0 0 0 0 0 0 0 0 0 0 0 0 0 0 0 127 0" result="hardAlpha"/>
<feOffset dx="-3"/>
<feGaussianBlur stdDeviation="1"/>
<feComposite in2="hardAlpha" operator="arithmetic" k2="-1" k3="1"/>
<feColorMatrix type="matrix" values="0 0 0 0 1 0 0 0 0 1 0 0 0 0 1 0 0 0 0.3 0"/>
<feBlend mode="normal" in2="shape" result="effect1_innerShadow_1117_7523"/>
</filter>
<filter id="filter3_dd_1117_7523" x="130.5" y="10" width="30" height="30" filterUnits="userSpaceOnUse" color-interpolation-filters="sRGB">
<feFlood flood-opacity="0" result="BackgroundImageFix"/>
<feColorMatrix in="SourceAlpha" type="matrix" values="0 0 0 0 0 0 0 0 0 0 0 0 0 0 0 0 0 0 127 0" result="hardAlpha"/>
<feMorphology radius="2" operator="dilate" in="SourceAlpha" result="effect1_dropShadow_1117_7523"/>
<feOffset/>
<feComposite in2="hardAlpha" operator="out"/>
<feColorMatrix type="matrix" values="0 0 0 0 1 0 0 0 0 1 0 0 0 0 1 0 0 0 0.4 0"/>
<feBlend mode="normal" in2="BackgroundImageFix" result="effect1_dropShadow_1117_7523"/>
<feColorMatrix in="SourceAlpha" type="matrix" values="0 0 0 0 0 0 0 0 0 0 0 0 0 0 0 0 0 0 127 0" result="hardAlpha"/>
<feMorphology radius="1.5" operator="dilate" in="SourceAlpha" result="effect2_dropShadow_1117_7523"/>
<feOffset/>
<feComposite in2="hardAlpha" operator="out"/>
<feColorMatrix type="matrix" values="0 0 0 0 0 0 0 0 0 0 0 0 0 0 0 0 0 0 1 0"/>
<feBlend mode="normal" in2="effect1_dropShadow_1117_7523" result="effect2_dropShadow_1117_7523"/>
<feBlend mode="normal" in="SourceGraphic" in2="effect2_dropShadow_1117_7523" result="shape"/>
</filter>
<clipPath id="clip0_1117_7523">
<rect width="53.8594" height="18" fill="white" transform="matrix(-1 0 0 -1 282.729 33.957)"/>
</clipPath>
</defs>
</svg>
